<svg id="Sticker" xmlns="http://www.w3.org/2000/svg" viewBox="0 0 804.33 568.75"><title>city-hall-wifi-simplified</title><g id="Bands"><path id="Bottom" d="M621.27,663.11h0a171.48,171.48,0,0,0-242.54,0h0L500,784.38Z" transform="translate(-97.83 -215.62)" style="fill:#3d58a7"/><path id="Middle" d="M500,594.87a188.94,188.94,0,0,1,134,55.51L755.27,529.11h0a360.7,360.7,0,0,0-510.54,0h0L366,650.38A188.94,188.94,0,0,1,500,594.87Z" transform="translate(-97.83 -215.62)" style="fill:#3d58a7"/><path id="Top" d="M500,405.38a377.81,377.81,0,0,1,268,111L902.17,382.21h0c-222.11-222.11-582.23-222.11-804.34,0h0L232,516.38A377.81,377.81,0,0,1,500,405.38Z" transform="translate(-97.83 -215.62)" style="fill:#3d58a7"/></g><g id="City_Hall" data-name="City Hall"><g id="Right_Arm" data-name="Right Arm"><path id="Glass" d="M533.5,411.11A100.5,100.5,0,0,0,634,310.61V650.38L533.5,750.88Z" transform="translate(-97.83 -215.62)" style="fill:#cdd7ee"/><path id="Post" d="M701,583.38V310.61a9.92,9.92,0,0,0-5.55-8.95c-14.05-6.82-41.86-6.82-55.91,0a9.93,9.93,0,0,0-5.54,8.95V650.38Z" transform="translate(-97.83 -215.62)" style="fill:#223f81"/></g><g id="Left_Arm" data-name="Left Arm"><path id="Glass-2" data-name="Glass" d="M466.5,458.49A100.5,100.5,0,0,1,366,358V650.38l100.5,100.5Z" transform="translate(-97.83 -215.62)" style="fill:#cdd7ee"/><path id="Post-2" data-name="Post" d="M299,583.38l67,67V358a9.93,9.93,0,0,0-5.54-8.95c-14-6.82-41.86-6.82-55.91,0A9.92,9.92,0,0,0,299,358Z" transform="translate(-97.83 -215.62)" style="fill:#223f81"/></g><g id="Dome"><path id="Bottom-2" data-name="Bottom" d="M500,705.86c-16.35,0-58,1.8-75.9,2.62l-5.7-5.7h0l81.6,81.6,75.9-75.9C558,707.66,516.34,705.86,500,705.86Z" transform="translate(-97.83 -215.62)" style="fill:#223f81"/><path id="Band" d="M584.29,700.09h0s-63.21-3-84.29-3-84.21,3-84.29,3l8.39,8.39c17.9-.82,59.55-2.62,75.9-2.62s58,1.8,75.9,2.62Z" transform="translate(-97.83 -215.62)" style="fill:#cdd7ee"/><path id="Top-2" data-name="Top" d="M415.71,700.09c.08,0,63.22-3,84.29-3s84.25,3,84.29,3h0a119.19,119.19,0,0,0-168.58,0Z" transform="translate(-97.83 -215.62)" style="fill:#223f81"/></g></g></svg>