<?xml version="1.0" encoding="UTF-8" standalone="no"?>
<svg
   xmlns:dc="http://purl.org/dc/elements/1.1/"
   xmlns:cc="http://creativecommons.org/ns#"
   xmlns:rdf="http://www.w3.org/1999/02/22-rdf-syntax-ns#"
   xmlns:svg="http://www.w3.org/2000/svg"
   xmlns="http://www.w3.org/2000/svg"
   xmlns:sodipodi="http://sodipodi.sourceforge.net/DTD/sodipodi-0.dtd"
   xmlns:inkscape="http://www.inkscape.org/namespaces/inkscape"
   width="1920"
   height="1080"
   viewBox="0 0 1920 1080"
   version="1.1"
   id="svg5618"
   sodipodi:docname="data-distributed.svg"
   inkscape:version="0.92.5 (2060ec1f9f, 2020-04-08)">
  <metadata
     id="metadata5622">
    <rdf:RDF>
      <cc:Work
         rdf:about="">
        <dc:format>image/svg+xml</dc:format>
        <dc:type
           rdf:resource="http://purl.org/dc/dcmitype/StillImage" />
      </cc:Work>
    </rdf:RDF>
  </metadata>
  <sodipodi:namedview
     pagecolor="#ffffff"
     bordercolor="#666666"
     borderopacity="1"
     objecttolerance="10"
     gridtolerance="10"
     guidetolerance="10"
     inkscape:pageopacity="0"
     inkscape:pageshadow="2"
     inkscape:window-width="1920"
     inkscape:window-height="1029"
     id="namedview5620"
     showgrid="false"
     inkscape:zoom="0.67916667"
     inkscape:cx="1007.8639"
     inkscape:cy="509.97479"
     inkscape:window-x="0"
     inkscape:window-y="0"
     inkscape:window-maximized="1"
     inkscape:current-layer="Layer_4" />
  <defs
     id="defs5521">
    <style
       id="style5519">.cls-1,.cls-2,.cls-3{fill:none;stroke-linecap:round;stroke-miterlimit:10;stroke-width:30px;}.cls-1{stroke:#ffcd50;stroke-dasharray:50 75;}.cls-2{stroke:#bdcada;}.cls-3{stroke:#3eb1cf;}.cls-4{fill:#bdcada;}.cls-5{fill:#3eb1cf;}</style>
  </defs>
  <title
     id="title5523">Illustrations</title>
  <g
     id="Layer_4"
     data-name="Layer 4">
    <line
       class="cls-1"
       x1="997.52"
       y1="462.4"
       x2="1068.77"
       y2="388.65"
       id="line5525" />
    <line
       class="cls-2"
       x1="1139"
       y1="342.31"
       x2="1246.51"
       y2="330.2"
       id="line5527" />
    <line
       class="cls-1"
       x1="1022.34"
       y1="519.91"
       x2="1153.65"
       y2="535.99"
       id="line5529" />
    <line
       class="cls-2"
       x1="1232.15"
       y1="569.55"
       x2="1295.26"
       y2="663.02"
       id="line5531" />
    <line
       class="cls-1"
       x1="611"
       y1="527.95"
       x2="929.47"
       y2="503.49"
       id="line5533" />
    <circle
       class="cls-2"
       cx="912.07"
       cy="285.84"
       r="46.43"
       id="circle5535" />
    <circle
       class="cls-2"
       cx="1068.77"
       cy="749.07"
       r="46.43"
       id="circle5537" />
    <circle
       class="cls-2"
       cx="1292.95"
       cy="320.38"
       r="46.43"
       id="circle5539" />
    <circle
       class="cls-2"
       cx="975.9"
       cy="503.49"
       r="46.43"
       id="circle5541" />
    <circle
       class="cls-2"
       cx="855.04"
       cy="731.32"
       r="46.43"
       id="circle5543" />
    <circle
       class="cls-2"
       cx="1319.49"
       cy="702.64"
       r="46.43"
       id="circle5545" />
    <line
       class="cls-2"
       x1="919.61"
       y1="331.65"
       x2="954.2"
       y2="462.44"
       id="line5547" />
    <line
       class="cls-2"
       x1="948.3"
       y1="540.83"
       x2="873"
       y2="688.49"
       id="line5549" />
    <line
       class="cls-2"
       x1="991.47"
       y1="547.24"
       x2="1053.22"
       y2="705.32"
       id="line5551" />
    <line
       class="cls-2"
       x1="1099.35"
       y1="714.15"
       x2="1192.75"
       y2="582.43"
       id="line5553" />
    <line
       class="cls-2"
       x1="1115.21"
       y1="389.31"
       x2="1178.27"
       y2="495"
       id="line5555" />
    <line
       class="cls-2"
       x1="1115.21"
       y1="749.07"
       x2="1278.59"
       y2="724.64"
       id="line5557" />
    <line
       class="cls-2"
       x1="1226.9"
       y1="498.1"
       x2="1292.95"
       y2="366.81"
       id="line5559" />
    <circle
       class="cls-3"
       cx="1200.08"
       cy="535.99"
       r="46.43"
       id="circle5561" />
    <circle
       class="cls-3"
       cx="1092.56"
       cy="348.77"
       r="46.43"
       id="circle5563" />
    <path
       class="cls-2"
       d="M537.85,410.52V601.39A24.84,24.84,0,0,1,513,626.23H344.16a24.84,24.84,0,0,1-24.83-24.84V507"
       id="path5587" />
    <path
       class="cls-2"
       d="M274.08,455.78l137-137a24.85,24.85,0,0,1,35.12,0l137,137"
       id="path5589" />
    <path
       class="cls-4"
       d="M391.38,725.93,374.74,699h9l11.73,19.86L407,699h8.69l-16.58,26.94v17.38h-7.75Z"
       id="path5591" />
    <path
       class="cls-4"
       d="M411.86,727.23c0-9.81,5.9-16.88,16.2-16.88s16.2,7.07,16.2,16.88-5.89,16.95-16.2,16.95S411.86,737.1,411.86,727.23Zm25.33,0c0-5.52-2.8-11.3-9.13-11.3s-9.12,5.78-9.12,11.3,2.79,11.36,9.12,11.36S437.19,732.82,437.19,727.23Z"
       id="path5593" />
    <path
       class="cls-4"
       d="M478.34,743.31h-6.95v-4.47h-.12a10.78,10.78,0,0,1-9.13,5.34c-8.38,0-12-4.22-12-12.6V711.21h7.08v19.68c0,5.65,2.3,7.7,6.14,7.7,5.9,0,7.89-3.79,7.89-8.75V711.21h7.07Z"
       id="path5595" />
    <path
       class="cls-5"
       d="M1308.59,511.23h7.77l7.9,33.42h.12l8.81-33.42H1341l8.56,33.42h.13l8.14-33.42h7.77l-12.06,43.7h-7.77l-8.75-33.42h-.12L1328,554.93h-7.9Z"
       id="path5597" />
    <path
       class="cls-5"
       d="M1374,540.91c0,5,2.69,9.37,8.51,9.37,4,0,6.48-1.78,7.71-5.27h6.61c-1.53,6.92-7.41,10.78-14.32,10.78-9.92,0-15.49-6.92-15.49-16.65,0-9,5.88-16.71,15.3-16.71,10,0,16.1,9,14.94,18.48Zm16.28-4.59c-.25-4.4-3.25-8.38-8-8.38s-8.14,3.67-8.32,8.38Z"
       id="path5599" />
    <path
       class="cls-5"
       d="M1402.77,511.23h7v16.16h.12a11.54,11.54,0,0,1,9.43-5c10,0,14.81,7.59,14.81,16.83,0,8.51-4.29,16.53-13.65,16.53-4.29,0-8.88-1-11-5.21h-.12v4.35h-6.61Zm15.61,16.71c-5.88,0-8.88,4.47-8.88,11.2,0,6.36,3.25,11.14,8.88,11.14,6.36,0,8.75-5.63,8.75-11.14C1427.13,533.38,1424.13,527.94,1418.38,527.94Z"
       id="path5601" />
    <path
       class="cls-5"
       d="M1487.47,525.12c-1.28-5-4.53-8.69-10.89-8.69-9.37,0-13.28,8.26-13.28,16.65s3.91,16.65,13.28,16.65c6.79,0,10.52-5.08,11.14-11.45h7.46c-.61,10.47-8,17.69-18.6,17.69-13.1,0-20.93-10.41-20.93-22.89s7.83-22.89,20.93-22.89c9.85.06,17.62,5.51,18.54,14.93Z"
       id="path5603" />
    <path
       class="cls-5"
       d="M1499.71,539.08c0-9.67,5.81-16.65,16-16.65s16,7,16,16.65-5.81,16.71-16,16.71S1499.71,548.81,1499.71,539.08Zm25,0c0-5.45-2.76-11.14-9-11.14s-9,5.69-9,11.14,2.76,11.2,9,11.2S1524.68,544.58,1524.68,539.08Z"
       id="path5605" />
    <path
       class="cls-5"
       d="M1537.46,523.29h6.61v4.65l.13.12a11.32,11.32,0,0,1,9.85-5.63c6.86,0,11.2,3.67,11.2,10.77v21.73h-7V535c-.12-5-2.08-7.1-6.18-7.1-4.65,0-7.65,3.67-7.65,8.32v18.67h-7Z"
       id="path5607" />
    <path
       class="cls-5"
       d="M1569.41,523.29h5.26V513.8h7v9.49h6.3v5.2h-6.3v16.89c0,2.88.24,4.35,3.36,4.35a11.7,11.7,0,0,0,2.94-.25v5.39c-1.53.12-3,.36-4.53.36-7.28,0-8.63-2.81-8.75-8.07V528.49h-5.26Z"
       id="path5609" />
    <path
       class="cls-5"
       d="M1598.42,540.91c0,5,2.69,9.37,8.5,9.37,4,0,6.49-1.78,7.71-5.27h6.62c-1.54,6.92-7.41,10.78-14.33,10.78-9.91,0-15.48-6.92-15.48-16.65,0-9,5.87-16.71,15.3-16.71,10,0,16.1,9,14.93,18.48Zm16.28-4.59c-.25-4.4-3.25-8.38-8-8.38s-8.14,3.67-8.32,8.38Z"
       id="path5611" />
    <path
       class="cls-5"
       d="M1627,523.29h6.61v4.65l.13.12a11.32,11.32,0,0,1,9.85-5.63c6.86,0,11.2,3.67,11.2,10.77v21.73h-7V535c-.12-5-2.08-7.1-6.18-7.1-4.65,0-7.65,3.67-7.65,8.32v18.67h-7Z"
       id="path5613" />
    <path
       class="cls-5"
       d="M1658.94,523.29h5.26V513.8h7v9.49h6.3v5.2h-6.3v16.89c0,2.88.24,4.35,3.37,4.35a11.66,11.66,0,0,0,2.93-.25v5.39c-1.53.12-3,.36-4.53.36-7.28,0-8.63-2.81-8.75-8.07V528.49h-5.26Z"
       id="path5615" />
    <g
       aria-label="Community Network"
       transform="translate(-22.631317,-96.82591)"
       style="font-style:normal;font-variant:normal;font-weight:600;font-stretch:normal;font-size:58.66666794px;line-height:1.25;font-family:'Open Sans';-inkscape-font-specification:'Open Sans, Semi-Bold';font-variant-ligatures:normal;font-variant-caps:normal;font-variant-numeric:normal;font-feature-settings:normal;text-align:start;letter-spacing:0px;word-spacing:0px;writing-mode:lr-tb;text-anchor:start;fill:#bdcada;fill-opacity:1;stroke:none"
       id="flowRoot6167">
      <path
         d="m 841.68229,960.02451 q -5.90104,0 -9.28125,4.1823 -3.38021,4.18229 -3.38021,11.54427 0,7.70573 3.23698,11.65885 3.26563,3.95313 9.42448,3.95313 2.66406,0 5.15625,-0.51563 2.49219,-0.54427 5.1849,-1.375 v 5.8724 q -4.92709,1.86198 -11.17188,1.86198 -9.19531,0 -14.12239,-5.5573 -4.92709,-5.58593 -4.92709,-15.95573 0,-6.53125 2.37761,-11.42968 2.40625,-4.89844 6.93229,-7.50521 4.52604,-2.60677 10.6276,-2.60677 6.41667,0 11.85938,2.69271 l -2.46354,5.70052 q -2.11979,-1.00261 -4.4974,-1.7474 -2.34896,-0.77344 -4.95573,-0.77344 z"
         style=""
         id="path6175" />
      <path
         d="m 888.43229,980.73545 q 0,7.76302 -3.98177,12.11719 -3.98177,4.35417 -11.08594,4.35417 -4.4401,0 -7.84895,-2.00521 -3.40886,-2.00521 -5.24219,-5.75782 -1.83333,-3.7526 -1.83333,-8.70833 0,-7.70573 3.95312,-12.03125 3.95313,-4.32552 11.14323,-4.32552 6.875,0 10.88542,4.4401 4.01041,4.41146 4.01041,11.91667 z m -23.05989,0 q 0,10.97136 8.10677,10.97136 8.02083,0 8.02083,-10.97136 0,-10.85677 -8.07812,-10.85677 -4.23959,0 -6.15886,2.80729 -1.89062,2.80729 -1.89062,8.04948 z"
         style=""
         id="path6177" />
      <path
         d="m 922.86459,996.63389 h -6.76042 v -19.53646 q 0,-3.63802 -1.375,-5.41406 -1.375,-1.80469 -4.29687,-1.80469 -3.89584,0 -5.72917,2.54948 -1.80469,2.52083 -1.80469,8.42187 v 15.78386 h -6.73177 V 964.9516 h 5.27084 l 0.94531,4.15364 h 0.34375 q 1.31771,-2.26302 3.80989,-3.49479 2.52084,-1.23177 5.52865,-1.23177 7.30469,0 9.68229,4.98438 h 0.45833 q 1.40365,-2.34896 3.95313,-3.66667 2.54948,-1.31771 5.84375,-1.31771 5.67188,0 8.25,2.86458 2.60677,2.86459 2.60677,8.73698 v 20.65365 h -6.73177 v -19.53646 q 0,-3.63802 -1.40365,-5.41406 -1.375,-1.80469 -4.29687,-1.80469 -3.92448,0 -5.75781,2.46354 -1.80469,2.4349 -1.80469,7.50521 z"
         style=""
         id="path6179" />
      <path
         d="m 978.95314,996.63389 h -6.76042 v -19.53646 q 0,-3.63802 -1.375,-5.41406 -1.375,-1.80469 -4.29688,-1.80469 -3.89583,0 -5.72916,2.54948 -1.80469,2.52083 -1.80469,8.42187 v 15.78386 h -6.73177 V 964.9516 h 5.27083 l 0.94531,4.15364 h 0.34375 q 1.31771,-2.26302 3.8099,-3.49479 2.52083,-1.23177 5.52865,-1.23177 7.30468,0 9.68229,4.98438 h 0.45833 q 1.40365,-2.34896 3.95313,-3.66667 2.54948,-1.31771 5.84375,-1.31771 5.67187,0 8.25,2.86458 2.60677,2.86459 2.60677,8.73698 v 20.65365 h -6.73177 v -19.53646 q 0,-3.63802 -1.40365,-5.41406 -1.375,-1.80469 -4.29687,-1.80469 -3.92448,0 -5.75782,2.46354 -1.80468,2.4349 -1.80468,7.50521 z"
         style=""
         id="path6181" />
      <path
         d="m 1030.6875,996.63389 -0.9453,-4.15365 h -0.3438 q -1.4036,2.20573 -4.0104,3.46615 -2.5781,1.26042 -5.901,1.26042 -5.7578,0 -8.5938,-2.86459 -2.8359,-2.86458 -2.8359,-8.67969 V 964.9516 h 6.7891 v 19.53646 q 0,3.63802 1.4895,5.47135 1.4896,1.80469 4.6693,1.80469 4.2396,0 6.2162,-2.52084 2.0052,-2.54948 2.0052,-8.50781 V 964.9516 h 6.7604 v 31.68229 z"
         style=""
         id="path6183" />
      <path
         d="m 1073.4557,996.63389 h -6.7604 v -19.47917 q 0,-3.66666 -1.4896,-5.47135 -1.4609,-1.80469 -4.6692,-1.80469 -4.2683,0 -6.2448,2.52083 -1.9766,2.52084 -1.9766,8.45052 v 15.78386 h -6.7318 V 964.9516 h 5.2709 l 0.9453,4.15364 h 0.3437 q 1.4323,-2.26302 4.0677,-3.49479 2.6355,-1.23177 5.8438,-1.23177 11.401,0 11.401,11.60156 z"
         style=""
         id="path6185" />
      <path
         d="m 1089.5547,996.63389 h -6.7318 V 964.9516 h 6.7318 z m -7.1328,-40.07552 q 0,-1.80469 0.974,-2.77865 1.0026,-0.97396 2.8359,-0.97396 1.776,0 2.75,0.97396 1.0026,0.97396 1.0026,2.77865 0,1.71875 -1.0026,2.72135 -0.974,0.97396 -2.75,0.97396 -1.8333,0 -2.8359,-0.97396 -0.974,-1.0026 -0.974,-2.72135 z"
         style=""
         id="path6187" />
      <path
         d="m 1110.9818,991.7641 q 2.4635,0 4.9271,-0.77344 v 5.07031 q -1.1172,0.48698 -2.8933,0.80209 -1.7474,0.34375 -3.638,0.34375 -9.5677,0 -9.5677,-10.08334 v -17.07291 h -4.3255 v -2.97917 l 4.6406,-2.46354 2.2917,-6.70313 h 4.1536 v 7.04688 h 9.0235 v 5.09896 h -9.0235 v 16.95833 q 0,2.43489 1.2031,3.60937 1.2318,1.14584 3.2084,1.14584 z"
         style=""
         id="path6189" />
      <path
         d="m 1117.4271,964.9516 h 7.3333 l 6.4453,17.96093 q 1.461,3.83855 1.948,7.21876 h 0.2291 q 0.2578,-1.57553 0.9453,-3.8099 0.6875,-2.26302 7.2761,-21.36979 h 7.276 l -13.5495,35.8932 q -3.6953,9.8828 -12.3177,9.8828 -2.2343,0 -4.3541,-0.4869 v -5.3282 q 1.5182,0.3438 3.4661,0.3438 4.8698,0 6.8464,-5.64324 l 1.1744,-2.97917 z"
         style=""
         id="path6191" />
      <path
         d="m 1204.5391,996.63389 h -8.3932 l -20.5964,-33.3724 h -0.2292 l 0.1433,1.86198 q 0.401,5.32813 0.401,9.73959 v 21.77083 h -6.2161 v -41.88021 h 8.3072 l 20.5391,33.20052 h 0.1719 q -0.057,-0.65885 -0.2292,-4.78385 -0.1719,-4.15365 -0.1719,-6.47396 v -21.94271 h 6.2735 z"
         style=""
         id="path6193" />
      <path
         d="m 1228.7162,997.20681 q -7.3907,0 -11.573,-4.29688 -4.1536,-4.32552 -4.1536,-11.88802 0,-7.76302 3.8672,-12.20313 3.8672,-4.4401 10.6276,-4.4401 6.2734,0 9.9114,3.8099 3.6381,3.80989 3.6381,10.48437 v 3.63802 h -21.112 q 0.1432,4.61198 2.4922,7.10417 2.3489,2.46354 6.6172,2.46354 2.8073,0 5.2135,-0.51562 2.4349,-0.54427 5.2135,-1.77605 v 5.47136 q -2.4635,1.17448 -4.9843,1.66146 -2.5209,0.48698 -5.7578,0.48698 z m -1.2318,-27.72917 q -3.2083,0 -5.1563,2.03385 -1.9192,2.03386 -2.2916,5.92969 h 14.3802 q -0.057,-3.92448 -1.8906,-5.92969 -1.8334,-2.03385 -5.0417,-2.03385 z"
         style=""
         id="path6195" />
      <path
         d="m 1260.4844,991.7641 q 2.4635,0 4.9271,-0.77344 v 5.07031 q -1.1172,0.48698 -2.8933,0.80209 -1.7473,0.34375 -3.638,0.34375 -9.5677,0 -9.5677,-10.08334 v -17.07291 h -4.3255 v -2.97917 l 4.6406,-2.46354 2.2917,-6.70313 h 4.1536 v 7.04688 h 9.0235 v 5.09896 h -9.0235 v 16.95833 q 0,2.43489 1.2032,3.60937 1.2317,1.14584 3.2083,1.14584 z"
         style=""
         id="path6197" />
      <path
         d="m 1297.724,996.63389 -4.0964,-14.78125 q -0.7448,-2.34896 -2.6927,-10.91406 h -0.2578 q -1.6615,7.73437 -2.6354,10.97135 l -4.211,14.72396 h -7.4479 l -8.8802,-31.68229 h 6.875 l 4.0391,15.61198 q 1.375,5.78645 1.9479,9.91146 h 0.1719 q 0.2864,-2.09115 0.8593,-4.78386 0.6016,-2.72135 1.0313,-4.06771 l 4.8125,-16.67187 h 7.3906 l 4.6693,16.67187 q 0.4297,1.40365 1.0599,4.29688 0.6588,2.89323 0.7734,4.49739 h 0.2292 q 0.4297,-3.52343 2.0052,-9.85416 l 4.0963,-15.61198 h 6.7605 l -8.9375,31.68229 z"
         style=""
         id="path6199" />
      <path
         d="m 1347.7683,980.73545 q 0,7.76302 -3.9818,12.11719 -3.9818,4.35417 -11.086,4.35417 -4.4401,0 -7.8489,-2.00521 -3.4089,-2.00521 -5.2422,-5.75782 -1.8333,-3.7526 -1.8333,-8.70833 0,-7.70573 3.9531,-12.03125 3.9531,-4.32552 11.1432,-4.32552 6.875,0 10.8854,4.4401 4.0105,4.41146 4.0105,11.91667 z m -23.0599,0 q 0,10.97136 8.1067,10.97136 8.0209,0 8.0209,-10.97136 0,-10.85677 -8.0782,-10.85677 -4.2396,0 -6.1588,2.80729 -1.8906,2.80729 -1.8906,8.04948 z"
         style=""
         id="path6201" />
      <path
         d="m 1371.5729,964.37868 q 2.0339,0 3.3516,0.28646 l -0.6589,6.27344 q -1.4322,-0.34375 -2.9791,-0.34375 -4.0391,0 -6.5599,2.63541 -2.4922,2.63542 -2.4922,6.84636 v 16.55729 h -6.7318 V 964.9516 h 5.2709 l 0.888,5.58593 h 0.3437 q 1.5755,-2.83593 4.0964,-4.49739 2.5495,-1.66146 5.4713,-1.66146 z"
         style=""
         id="path6203" />
      <path
         d="m 1387.2995,979.90472 3.8099,-4.75521 9.5677,-10.19791 h 7.763 l -12.7474,13.60677 13.5495,18.07552 h -7.9063 l -10.1692,-13.89323 -3.6953,3.03646 v 10.85677 h -6.6745 v -44.57292 h 6.6745 v 21.74219 l -0.3438,6.10156 z"
         style=""
         id="path6205" />
    </g>
  </g>
</svg>
