<?xml version="1.0" encoding="UTF-8" standalone="no"?>
<svg
   xmlns:dc="http://purl.org/dc/elements/1.1/"
   xmlns:cc="http://creativecommons.org/ns#"
   xmlns:rdf="http://www.w3.org/1999/02/22-rdf-syntax-ns#"
   xmlns:svg="http://www.w3.org/2000/svg"
   xmlns="http://www.w3.org/2000/svg"
   xmlns:sodipodi="http://sodipodi.sourceforge.net/DTD/sodipodi-0.dtd"
   xmlns:inkscape="http://www.inkscape.org/namespaces/inkscape"
   width="1920"
   height="1080"
   viewBox="0 0 1920 1080"
   version="1.1"
   id="svg5239"
   sodipodi:docname="data-centralized.svg"
   inkscape:version="0.92.5 (2060ec1f9f, 2020-04-08)">
  <metadata
     id="metadata5243">
    <rdf:RDF>
      <cc:Work
         rdf:about="">
        <dc:format>image/svg+xml</dc:format>
        <dc:type
           rdf:resource="http://purl.org/dc/dcmitype/StillImage" />
      </cc:Work>
    </rdf:RDF>
  </metadata>
  <sodipodi:namedview
     pagecolor="#ffffff"
     bordercolor="#666666"
     borderopacity="1"
     objecttolerance="10"
     gridtolerance="10"
     guidetolerance="10"
     inkscape:pageopacity="0"
     inkscape:pageshadow="2"
     inkscape:window-width="1920"
     inkscape:window-height="1029"
     id="namedview5241"
     showgrid="false"
     inkscape:zoom="0.93323364"
     inkscape:cx="675.35993"
     inkscape:cy="416.83686"
     inkscape:window-x="0"
     inkscape:window-y="0"
     inkscape:window-maximized="1"
     inkscape:current-layer="layer2" />
  <defs
     id="defs5094">
    <style
       id="style5092">
.cls-1,.cls-3,.cls-5,.cls-6,.cls-7,.cls-8{fill:none;stroke-linecap:round;stroke-miterlimit:10;}
.cls-1{stroke:#bdcada;}.cls-1,.cls-3{stroke-width:22.43px;}.cls-2{fill:#bdcada;}.cls-3{stroke:#3eb1cf;}.cls-4{fill:#3eb1cf;}.cls-5,.cls-6,.cls-7,.cls-8{stroke:#ffcd50;stroke-width:22.43px;}.cls-5{stroke-dasharray:25 50;}.cls-7{stroke-dasharray:19.4 38.81;}.cls-8{stroke-dasharray:15.37 30.75;}</style>
  </defs>
  <title
     id="title5096">Illustrations</title>
  <g
     inkscape:groupmode="layer"
     id="layer2"
     inkscape:label="Original"
     style="display:inline">
    <g
       id="Layer_3"
       data-name="Layer 3">
      <path
         class="cls-1"
         d="m 281.69,438.15 v 142.73 a 18.56,18.56 0 0 1 -18.57,18.57 H 136.86 a 18.56,18.56 0 0 1 -18.57,-18.57 v -70.56"
         id="path5098"
         inkscape:connector-curvature="0"
         style="fill:none;stroke:#bdcada;stroke-width:22.43000031px;stroke-linecap:round;stroke-miterlimit:10" />
      <path
         class="cls-1"
         d="M 84.44,472 186.86,369.58 a 18.57,18.57 0 0 1 26.26,0 L 315.53,472"
         id="path5100"
         inkscape:connector-curvature="0"
         style="fill:none;stroke:#bdcada;stroke-width:22.43000031px;stroke-linecap:round;stroke-miterlimit:10" />
      <path
         class="cls-2"
         d="m 1054.6,328.52 h 25 v 95.93 h -25 z"
         id="path5102"
         inkscape:connector-curvature="0"
         style="fill:#bdcada" />
      <path
         class="cls-2"
         d="m 1116.41,392.2 c 0.53,11.29 7.52,14.92 18.13,14.92 7.53,0 15.32,-2.69 15.32,-9.81 0,-8.47 -13.7,-10.08 -27.54,-14 -13.84,-3.92 -28.08,-10.08 -28.08,-27.68 0,-21 21.09,-29.16 39.09,-29.16 19.08,0 38.29,9.27 38.43,30.91 h -25 c 0.4,-8.74 -7.79,-11.56 -15.45,-11.56 -5.38,0 -12.09,1.88 -12.09,8.2 0,7.39 13.84,8.73 27.81,12.63 13.97,3.9 27.81,10.34 27.81,27.67 0,24.32 -20.69,32.11 -41.78,32.11 -22,0 -41.52,-9.67 -41.65,-34.26 z"
         id="path5104"
         inkscape:connector-curvature="0"
         style="fill:#bdcada" />
      <path
         class="cls-2"
         d="m 1186.54,328.52 h 45.55 c 17.87,0 34.66,8.2 34.66,30.9 0,23.78 -13.57,33.05 -34.66,33.05 h -20.56 v 32 h -25 z m 25,44.61 h 16.8 c 7.79,0 13.43,-3.23 13.43,-12 0,-9 -5.78,-12.63 -13.43,-12.63 h -16.8 z"
         id="path5106"
         inkscape:connector-curvature="0"
         style="fill:#bdcada" />
      <path
         class="cls-2"
         d="m 1326.41,367 v -16.8 c 13.17,0.27 26.74,-4.57 27.68,-19.35 H 1373 v 93.65 h -24.18 V 367 Z"
         id="path5108"
         inkscape:connector-curvature="0"
         style="fill:#bdcada" />
      <rect
         class="cls-3"
         x="1636.54"
         y="365.37"
         width="163.39999"
         height="235.31"
         rx="18.57"
         ry="18.57"
         id="rect5110"
         style="fill:none;stroke:#3eb1cf;stroke-width:22.43000031px;stroke-linecap:round;stroke-miterlimit:10" />
      <rect
         class="cls-3"
         x="1636.54"
         y="365.37"
         width="163.39999"
         height="78.440002"
         rx="18.57"
         ry="18.57"
         id="rect5112"
         style="fill:none;stroke:#3eb1cf;stroke-width:22.43000031px;stroke-linecap:round;stroke-miterlimit:10" />
      <rect
         class="cls-3"
         x="1636.54"
         y="443.81"
         width="163.39999"
         height="78.440002"
         rx="18.57"
         ry="18.57"
         id="rect5114"
         style="fill:none;stroke:#3eb1cf;stroke-width:22.43000031px;stroke-linecap:round;stroke-miterlimit:10" />
      <rect
         class="cls-3"
         x="1636.54"
         y="522.23999"
         width="163.39999"
         height="78.440002"
         rx="18.57"
         ry="18.57"
         id="rect5116"
         style="fill:none;stroke:#3eb1cf;stroke-width:22.43000031px;stroke-linecap:round;stroke-miterlimit:10" />
      <line
         class="cls-3"
         x1="1673.23"
         y1="404.59"
         x2="1700.16"
         y2="404.59"
         id="line5118"
         style="fill:none;stroke:#3eb1cf;stroke-width:22.43000031px;stroke-linecap:round;stroke-miterlimit:10" />
      <line
         class="cls-3"
         x1="1673.23"
         y1="483.01999"
         x2="1700.16"
         y2="483.01999"
         id="line5120"
         style="fill:none;stroke:#3eb1cf;stroke-width:22.43000031px;stroke-linecap:round;stroke-miterlimit:10" />
      <line
         class="cls-3"
         x1="1673.23"
         y1="561.46002"
         x2="1700.16"
         y2="561.46002"
         id="line5122"
         style="fill:none;stroke:#3eb1cf;stroke-width:22.43000031px;stroke-linecap:round;stroke-miterlimit:10" />
      <path
         class="cls-2"
         d="m 172.16,684 -12.44,-20.14 h 6.73 l 8.77,14.85 8.64,-14.85 h 6.49 L 178,684 v 13 h -5.8 z"
         id="path5124"
         inkscape:connector-curvature="0"
         style="fill:#bdcada" />
      <path
         class="cls-2"
         d="m 187.48,685 c 0,-7.33 4.41,-12.63 12.11,-12.63 7.7,0 12.12,5.3 12.12,12.63 0,7.33 -4.41,12.67 -12.12,12.67 -7.71,0 -12.11,-5.31 -12.11,-12.67 z m 18.94,0 c 0,-4.13 -2.09,-8.45 -6.83,-8.45 -4.74,0 -6.82,4.32 -6.82,8.45 0,4.13 2.09,8.49 6.82,8.49 4.73,0 6.83,-4.33 6.83,-8.49 z"
         id="path5126"
         inkscape:connector-curvature="0"
         style="fill:#bdcada" />
      <path
         class="cls-2"
         d="M 237.19,697 H 232 v -3.34 h -0.1 a 8.07,8.07 0 0 1 -6.82,4 c -6.27,0 -9,-3.15 -9,-9.42 V 673 h 5.29 v 14.72 c 0,4.22 1.72,5.75 4.6,5.75 4.41,0 5.89,-2.83 5.89,-6.54 V 673 h 5.29 z"
         id="path5128"
         inkscape:connector-curvature="0"
         style="fill:#bdcada" />
      <path
         class="cls-4"
         d="m 1576.94,667 h 5.9 l 6,25.34 h 0.09 L 1595.6,667 h 6 l 6.49,25.34 h 0.1 l 6.17,-25.34 h 5.9 l -9.15,33.14 h -5.89 l -6.64,-25.34 h -0.09 l -6.78,25.34 h -6 z"
         id="path5130"
         inkscape:connector-curvature="0"
         style="fill:#3eb1cf" />
      <path
         class="cls-4"
         d="m 1626.57,689.52 c 0,3.76 2,7.1 6.45,7.1 3.06,0 4.92,-1.34 5.85,-4 h 5 c -1.16,5.25 -5.61,8.17 -10.86,8.17 -7.52,0 -11.74,-5.25 -11.74,-12.63 0,-6.82 4.45,-12.67 11.6,-12.67 7.57,0 12.21,6.83 11.33,14 z m 12.35,-3.48 c -0.19,-3.34 -2.46,-6.36 -6,-6.36 a 6.27,6.27 0 0 0 -6.31,6.36 z"
         id="path5132"
         inkscape:connector-curvature="0"
         style="fill:#3eb1cf" />
      <path
         class="cls-4"
         d="m 1648.39,667 h 5.29 v 12.25 h 0.09 a 8.75,8.75 0 0 1 7.15,-3.76 c 7.57,0 11.23,5.76 11.23,12.77 0,6.45 -3.25,12.53 -10.35,12.53 -3.25,0 -6.73,-0.79 -8.31,-3.95 h -0.09 v 3.3 h -5 z m 11.83,12.67 c -4.45,0 -6.73,3.39 -6.73,8.49 0,4.83 2.46,8.45 6.73,8.45 4.83,0 6.64,-4.27 6.64,-8.45 0,-4.35 -2.27,-8.48 -6.64,-8.48 z"
         id="path5134"
         inkscape:connector-curvature="0"
         style="fill:#3eb1cf" />
      <path
         class="cls-4"
         d="m 1712.63,677.54 c -1,-3.8 -3.43,-6.59 -8.26,-6.59 -7.1,0 -10.07,6.27 -10.07,12.63 0,6.36 3,12.63 10.07,12.63 5.15,0 8,-3.86 8.45,-8.68 h 5.66 c -0.46,7.93 -6.08,13.41 -14.11,13.41 -9.93,0 -15.87,-7.89 -15.87,-17.36 0,-9.47 5.94,-17.36 15.87,-17.36 7.47,0 13.37,4.18 14.06,11.32 z"
         id="path5136"
         inkscape:connector-curvature="0"
         style="fill:#3eb1cf" />
      <path
         class="cls-4"
         d="m 1721.92,688.13 c 0,-7.34 4.41,-12.63 12.11,-12.63 7.7,0 12.12,5.29 12.12,12.63 0,7.34 -4.41,12.67 -12.12,12.67 -7.71,0 -12.11,-5.29 -12.11,-12.67 z m 18.94,0 c 0,-4.13 -2.09,-8.45 -6.83,-8.45 -4.74,0 -6.82,4.32 -6.82,8.45 0,4.13 2.09,8.49 6.82,8.49 4.73,0 6.83,-4.31 6.83,-8.49 z"
         id="path5138"
         inkscape:connector-curvature="0"
         style="fill:#3eb1cf" />
      <path
         class="cls-4"
         d="m 1750.56,676.15 h 5 v 3.53 l 0.1,0.09 a 8.59,8.59 0 0 1 7.47,-4.27 c 5.2,0 8.49,2.79 8.49,8.17 v 16.48 h -5.29 v -15.09 c -0.09,-3.76 -1.58,-5.38 -4.69,-5.38 -3.52,0 -5.8,2.79 -5.8,6.31 v 14.16 h -5.29 z"
         id="path5140"
         inkscape:connector-curvature="0"
         style="fill:#3eb1cf" />
      <path
         class="cls-4"
         d="m 1774.79,676.15 h 4 V 669 h 5.29 v 7.19 h 4.79 v 4 h -4.79 V 693 c 0,2.18 0.19,3.3 2.56,3.3 a 8.89,8.89 0 0 0 2.23,-0.19 v 4.08 c -1.16,0.1 -2.28,0.28 -3.44,0.28 -5.52,0 -6.54,-2.13 -6.64,-6.12 V 680.1 h -4 z"
         id="path5142"
         inkscape:connector-curvature="0"
         style="fill:#3eb1cf" />
      <path
         class="cls-4"
         d="m 1796.79,689.52 c 0,3.76 2,7.1 6.46,7.1 3.06,0 4.92,-1.34 5.84,-4 h 5 c -1.16,5.25 -5.62,8.17 -10.86,8.17 -7.52,0 -11.75,-5.25 -11.75,-12.63 0,-6.82 4.46,-12.67 11.61,-12.67 7.56,0 12.2,6.83 11.32,14 z m 12.35,-3.48 c -0.18,-3.34 -2.46,-6.36 -6,-6.36 a 6.28,6.28 0 0 0 -6.32,6.36 z"
         id="path5144"
         inkscape:connector-curvature="0"
         style="fill:#3eb1cf" />
      <path
         class="cls-4"
         d="m 1818.47,676.15 h 5 v 3.53 l 0.09,0.09 a 8.61,8.61 0 0 1 7.47,-4.27 c 5.2,0 8.5,2.79 8.5,8.17 v 16.48 h -5.29 v -15.09 c -0.1,-3.76 -1.58,-5.38 -4.69,-5.38 -3.53,0 -5.81,2.79 -5.81,6.31 v 14.16 h -5.29 z"
         id="path5146"
         inkscape:connector-curvature="0"
         style="fill:#3eb1cf" />
      <path
         class="cls-4"
         d="m 1842.71,676.15 h 4 V 669 h 5.29 v 7.19 h 4.78 v 4 H 1852 V 693 c 0,2.18 0.18,3.3 2.55,3.3 a 8.85,8.85 0 0 0 2.23,-0.19 v 4.08 c -1.16,0.1 -2.27,0.28 -3.44,0.28 -5.52,0 -6.54,-2.13 -6.63,-6.12 V 680.1 h -4 z"
         id="path5148"
         inkscape:connector-curvature="0"
         style="fill:#3eb1cf" />
      <line
         class="cls-5"
         x1="640.57001"
         y1="471.01999"
         x2="693.5"
         y2="416.23001"
         id="line5150"
         style="fill:none;stroke:#ffcd50;stroke-width:22.43000031px;stroke-linecap:round;stroke-miterlimit:10;stroke-dasharray:25, 50" />
      <line
         class="cls-5"
         x1="745.67999"
         y1="381.79999"
         x2="825.56"
         y2="372.81"
         id="line5152"
         style="fill:none;stroke:#ffcd50;stroke-width:22.43000031px;stroke-linecap:round;stroke-miterlimit:10;stroke-dasharray:25, 50" />
      <line
         class="cls-5"
         x1="659.01001"
         y1="513.73999"
         x2="756.56"
         y2="525.70001"
         id="line5154"
         style="fill:none;stroke:#ffcd50;stroke-width:22.43000031px;stroke-linecap:round;stroke-miterlimit:10;stroke-dasharray:25, 50" />
      <line
         class="cls-5"
         x1="814.89001"
         y1="550.63"
         x2="861.78003"
         y2="620.07001"
         id="line5156"
         style="fill:none;stroke:#ffcd50;stroke-width:22.43000031px;stroke-linecap:round;stroke-miterlimit:10;stroke-dasharray:25, 50" />
      <line
         class="cls-5"
         x1="1427.97"
         y1="645.15002"
         x2="1547.45"
         y2="508.75"
         id="line5158"
         style="fill:none;stroke:#ffcd50;stroke-width:22.43000031px;stroke-linecap:round;stroke-miterlimit:10;stroke-dasharray:25, 50" />
      <line
         class="cls-5"
         x1="583.58002"
         y1="500.32999"
         x2="334.51999"
         y2="500.32999"
         id="line5160"
         style="fill:none;stroke:#ffcd50;stroke-width:22.43000031px;stroke-linecap:round;stroke-miterlimit:10;stroke-dasharray:25, 50" />
      <line
         class="cls-6"
         x1="894.54999"
         y1="365.5"
         x2="906.98999"
         y2="366.70999"
         id="line5162"
         style="fill:none;stroke:#ffcd50;stroke-width:22.43000031px;stroke-linecap:round;stroke-miterlimit:10" />
      <line
         class="cls-7"
         x1="945.62"
         y1="370.45999"
         x2="984.25"
         y2="374.22"
         id="line5164"
         style="fill:none;stroke:#ffcd50;stroke-width:22.43000031px;stroke-linecap:round;stroke-miterlimit:10;stroke-dasharray:19.4, 38.81" />
      <line
         class="cls-6"
         x1="1003.56"
         y1="376.09"
         x2="1016"
         y2="377.29999"
         id="line5166"
         style="fill:none;stroke:#ffcd50;stroke-width:22.43000031px;stroke-linecap:round;stroke-miterlimit:10" />
      <line
         class="cls-6"
         x1="914.27002"
         y1="649.5"
         x2="926.75"
         y2="648.85999"
         id="line5168"
         style="fill:none;stroke:#ffcd50;stroke-width:22.43000031px;stroke-linecap:round;stroke-miterlimit:10" />
      <line
         class="cls-8"
         x1="957.46002"
         y1="647.27002"
         x2="988.15997"
         y2="645.67999"
         id="line5170"
         style="fill:none;stroke:#ffcd50;stroke-width:22.43000031px;stroke-linecap:round;stroke-miterlimit:10;stroke-dasharray:15.37, 30.75" />
      <line
         class="cls-6"
         x1="1003.52"
         y1="644.88"
         x2="1016"
         y2="644.23999"
         id="line5172"
         style="fill:none;stroke:#ffcd50;stroke-width:22.43000031px;stroke-linecap:round;stroke-miterlimit:10" />
      <circle
         class="cls-1"
         cx="577.08002"
         cy="339.84"
         r="34.5"
         id="circle5174"
         style="fill:none;stroke:#bdcada;stroke-width:22.43000031px;stroke-linecap:round;stroke-miterlimit:10" />
      <circle
         class="cls-1"
         cx="693.5"
         cy="684"
         r="34.5"
         id="circle5176"
         style="fill:none;stroke:#bdcada;stroke-width:22.43000031px;stroke-linecap:round;stroke-miterlimit:10" />
      <circle
         class="cls-1"
         cx="860.06"
         cy="365.5"
         r="34.5"
         id="circle5178"
         style="fill:none;stroke:#bdcada;stroke-width:22.43000031px;stroke-linecap:round;stroke-miterlimit:10" />
      <circle
         class="cls-1"
         cx="624.51001"
         cy="501.54999"
         r="34.5"
         id="circle5180"
         style="fill:none;stroke:#bdcada;stroke-width:22.43000031px;stroke-linecap:round;stroke-miterlimit:10" />
      <circle
         class="cls-1"
         cx="791.06"
         cy="525.70001"
         r="34.5"
         id="circle5182"
         style="fill:none;stroke:#bdcada;stroke-width:22.43000031px;stroke-linecap:round;stroke-miterlimit:10" />
      <circle
         class="cls-1"
         cx="711.17999"
         cy="386.60001"
         r="34.5"
         id="circle5184"
         style="fill:none;stroke:#bdcada;stroke-width:22.43000031px;stroke-linecap:round;stroke-miterlimit:10" />
      <circle
         class="cls-1"
         cx="534.71002"
         cy="670.81"
         r="34.5"
         id="circle5186"
         style="fill:none;stroke:#bdcada;stroke-width:22.43000031px;stroke-linecap:round;stroke-miterlimit:10" />
      <circle
         class="cls-1"
         cx="879.77002"
         cy="649.5"
         r="34.5"
         id="circle5188"
         style="fill:none;stroke:#bdcada;stroke-width:22.43000031px;stroke-linecap:round;stroke-miterlimit:10" />
      <line
         class="cls-1"
         x1="582.67999"
         y1="373.88"
         x2="608.38"
         y2="471.04999"
         id="line5190"
         style="fill:none;stroke:#bdcada;stroke-width:22.43000031px;stroke-linecap:round;stroke-miterlimit:10" />
      <line
         class="cls-1"
         x1="604"
         y1="529.28998"
         x2="548.06"
         y2="638.98999"
         id="line5192"
         style="fill:none;stroke:#bdcada;stroke-width:22.43000031px;stroke-linecap:round;stroke-miterlimit:10" />
      <line
         class="cls-1"
         x1="636.07001"
         y1="534.04999"
         x2="681.95001"
         y2="651.48999"
         id="line5194"
         style="fill:none;stroke:#bdcada;stroke-width:22.43000031px;stroke-linecap:round;stroke-miterlimit:10" />
      <line
         class="cls-1"
         x1="716.22998"
         y1="658.06"
         x2="785.62"
         y2="560.19"
         id="line5196"
         style="fill:none;stroke:#bdcada;stroke-width:22.43000031px;stroke-linecap:round;stroke-miterlimit:10" />
      <line
         class="cls-1"
         x1="728"
         y1="416.72"
         x2="774.85999"
         y2="495.23999"
         id="line5198"
         style="fill:none;stroke:#bdcada;stroke-width:22.43000031px;stroke-linecap:round;stroke-miterlimit:10" />
      <line
         class="cls-1"
         x1="728"
         y1="684"
         x2="849.39001"
         y2="665.84998"
         id="line5200"
         style="fill:none;stroke:#bdcada;stroke-width:22.43000031px;stroke-linecap:round;stroke-miterlimit:10" />
      <line
         class="cls-1"
         x1="810.97998"
         y1="497.54001"
         x2="860.06"
         y2="400"
         id="line5202"
         style="fill:none;stroke:#bdcada;stroke-width:22.43000031px;stroke-linecap:round;stroke-miterlimit:10" />
      <path
         class="cls-2"
         d="m 1054.6,594.55 h 25 v 95.93 h -25 z"
         id="path5204"
         inkscape:connector-curvature="0"
         style="fill:#bdcada" />
      <path
         class="cls-2"
         d="m 1116.41,658.23 c 0.53,11.29 7.52,14.91 18.13,14.91 7.53,0 15.32,-2.68 15.32,-9.8 0,-8.47 -13.7,-10.08 -27.54,-14 -13.84,-3.92 -28.08,-10.07 -28.08,-27.67 0,-21 21.09,-29.16 39.09,-29.16 19.08,0 38.29,9.27 38.43,30.9 h -25 c 0.4,-8.73 -7.79,-11.55 -15.45,-11.55 -5.38,0 -12.09,1.88 -12.09,8.19 0,7.39 13.84,8.74 27.81,12.63 13.97,3.89 27.81,10.35 27.81,27.68 0,24.32 -20.69,32.11 -41.78,32.11 -22,0 -41.52,-9.67 -41.65,-34.26 z"
         id="path5206"
         inkscape:connector-curvature="0"
         style="fill:#bdcada" />
      <path
         class="cls-2"
         d="m 1186.54,594.55 h 45.55 c 17.87,0 34.66,8.19 34.66,30.9 0,23.78 -13.57,33 -34.66,33 h -20.56 v 32 h -25 z m 25,44.6 h 16.8 c 7.79,0 13.43,-3.22 13.43,-11.95 0,-9 -5.78,-12.63 -13.43,-12.63 h -16.8 z"
         id="path5208"
         inkscape:connector-curvature="0"
         style="fill:#bdcada" />
      <path
         class="cls-2"
         d="m 1316.6,690.48 a 41.48,41.48 0 0 1 14.65,-31.17 c 8.06,-7 17.19,-11.83 24.45,-16.4 7.26,-4.57 12.22,-9.27 12.22,-15.58 0,-7.26 -4.83,-11.69 -12.09,-11.69 -12.09,0 -15.45,8.73 -15.58,18.94 h -21.37 c -1.34,-23.24 13.44,-39 36.82,-39 18.54,0 35.06,9.67 35.06,29.69 0,18 -12.89,24.73 -26.6,33.19 -7.12,4.43 -10.88,6.72 -16.93,12.63 h 44.48 v 19.35 z"
         id="path5210"
         inkscape:connector-curvature="0"
         style="fill:#bdcada" />
      <line
         class="cls-5"
         x1="1427.78"
         y1="372.37"
         x2="1547.26"
         y2="508.76001"
         id="line5212"
         style="fill:none;stroke:#ffcd50;stroke-width:22.43000031px;stroke-linecap:round;stroke-miterlimit:10;stroke-dasharray:25, 50" />
      <line
         class="cls-5"
         x1="1547.45"
         y1="508.75"
         x2="1585"
         y2="508.75"
         id="line5214"
         style="fill:none;stroke:#ffcd50;stroke-width:22.43000031px;stroke-linecap:round;stroke-miterlimit:10;stroke-dasharray:25, 50" />
    </g>
    <path
       transform="translate(-51.863324,-69.650297)"
       style="font-style:normal;font-variant:normal;font-weight:bold;font-stretch:normal;font-size:48px;line-height:1.25;font-family:'Open Sans';-inkscape-font-specification:'Open Sans, Bold';font-variant-ligatures:normal;font-variant-caps:normal;font-variant-numeric:normal;font-feature-settings:normal;text-align:start;letter-spacing:0px;word-spacing:0px;writing-mode:lr-tb;text-anchor:start;display:inline;fill:#bdcada;fill-opacity:1;stroke:none"
       d="m 528.92187,851.65145 q -4.10156,0 -6.35156,3.09375 -2.25,3.07031 -2.25,8.57812 0,11.46094 8.60156,11.46094 3.60938,0 8.74219,-1.80469 v 6.09375 q -4.21875,1.75782 -9.42187,1.75782 -7.47657,0 -11.4375,-4.52344 -3.96094,-4.54688 -3.96094,-13.03125 0,-5.34375 1.94531,-9.35156 1.94531,-4.03125 5.57813,-6.16407 3.65625,-2.15625 8.55468,-2.15625 4.99219,0 10.03125,2.41407 l -2.34375,5.90625 q -1.92187,-0.91407 -3.86718,-1.59375 -1.94532,-0.67969 -3.82032,-0.67969 z"
       id="path5330"
       inkscape:connector-curvature="0" />
    <path
       transform="translate(-51.863324,-69.650297)"
       style="font-style:normal;font-variant:normal;font-weight:bold;font-stretch:normal;font-size:48px;line-height:1.25;font-family:'Open Sans';-inkscape-font-specification:'Open Sans, Bold';font-variant-ligatures:normal;font-variant-caps:normal;font-variant-numeric:normal;font-feature-settings:normal;text-align:start;letter-spacing:0px;word-spacing:0px;writing-mode:lr-tb;text-anchor:start;display:inline;fill:#bdcada;fill-opacity:1;stroke:none"
       d="m 550.08594,867.21395 q 0,3.89062 1.26562,5.88281 1.28906,1.99219 4.17188,1.99219 2.85937,0 4.10156,-1.96875 1.26562,-1.99219 1.26562,-5.90625 0,-3.89063 -1.26562,-5.83594 -1.26563,-1.94531 -4.14844,-1.94531 -2.85937,0 -4.125,1.94531 -1.26562,1.92188 -1.26562,5.83594 z m 18.11718,0 q 0,6.39844 -3.375,10.00781 -3.375,3.60938 -9.39843,3.60938 -3.77344,0 -6.65625,-1.64063 -2.88282,-1.66406 -4.42969,-4.75781 -1.54688,-3.09375 -1.54688,-7.21875 0,-6.42188 3.35157,-9.98438 3.35156,-3.5625 9.42187,-3.5625 3.77344,0 6.65625,1.64063 2.88281,1.64062 4.42969,4.71094 1.54687,3.07031 1.54687,7.19531 z"
       id="path5332"
       inkscape:connector-curvature="0" />
    <path
       transform="translate(-51.863324,-69.650297)"
       style="font-style:normal;font-variant:normal;font-weight:bold;font-stretch:normal;font-size:48px;line-height:1.25;font-family:'Open Sans';-inkscape-font-specification:'Open Sans, Bold';font-variant-ligatures:normal;font-variant-caps:normal;font-variant-numeric:normal;font-feature-settings:normal;text-align:start;letter-spacing:0px;word-spacing:0px;writing-mode:lr-tb;text-anchor:start;display:inline;fill:#bdcada;fill-opacity:1;stroke:none"
       d="m 597.57031,880.36239 h -7.14844 V 865.0577 q 0,-2.83594 -0.96093,-4.24219 -0.9375,-1.42969 -2.97657,-1.42969 -2.74218,0 -3.98437,2.01563 -1.24219,2.01562 -1.24219,6.63281 v 12.32813 h -7.14844 v -26.20313 h 5.46094 l 0.96094,3.35156 h 0.39844 q 1.05468,-1.80468 3.04687,-2.8125 1.99219,-1.03125 4.57031,-1.03125 5.88282,0 7.96875,3.84375 h 0.63282 q 1.05468,-1.82812 3.09375,-2.83593 2.0625,-1.00782 4.64062,-1.00782 4.45313,0 6.72656,2.29688 2.29688,2.27344 2.29688,7.3125 v 17.08594 h -7.17188 V 865.0577 q 0,-2.83594 -0.96093,-4.24219 -0.9375,-1.42969 -2.97657,-1.42969 -2.625,0 -3.9375,1.875 -1.28906,1.875 -1.28906,5.95313 z"
       id="path5334"
       inkscape:connector-curvature="0" />
    <path
       transform="translate(-51.863324,-69.650297)"
       style="font-style:normal;font-variant:normal;font-weight:bold;font-stretch:normal;font-size:48px;line-height:1.25;font-family:'Open Sans';-inkscape-font-specification:'Open Sans, Bold';font-variant-ligatures:normal;font-variant-caps:normal;font-variant-numeric:normal;font-feature-settings:normal;text-align:start;letter-spacing:0px;word-spacing:0px;writing-mode:lr-tb;text-anchor:start;display:inline;fill:#bdcada;fill-opacity:1;stroke:none"
       d="m 644.70312,880.36239 h -7.14843 V 865.0577 q 0,-2.83594 -0.96094,-4.24219 -0.9375,-1.42969 -2.97656,-1.42969 -2.74219,0 -3.98438,2.01563 -1.24219,2.01562 -1.24219,6.63281 v 12.32813 h -7.14843 v -26.20313 h 5.46093 l 0.96094,3.35156 h 0.39844 q 1.05469,-1.80468 3.04687,-2.8125 1.99219,-1.03125 4.57032,-1.03125 5.88281,0 7.96875,3.84375 h 0.63281 q 1.05469,-1.82812 3.09375,-2.83593 2.0625,-1.00782 4.64062,-1.00782 4.45313,0 6.72657,2.29688 2.29687,2.27344 2.29687,7.3125 v 17.08594 h -7.17187 V 865.0577 q 0,-2.83594 -0.96094,-4.24219 -0.9375,-1.42969 -2.97656,-1.42969 -2.625,0 -3.9375,1.875 -1.28907,1.875 -1.28907,5.95313 z"
       id="path5336"
       inkscape:connector-curvature="0" />
    <path
       transform="translate(-51.863324,-69.650297)"
       style="font-style:normal;font-variant:normal;font-weight:bold;font-stretch:normal;font-size:48px;line-height:1.25;font-family:'Open Sans';-inkscape-font-specification:'Open Sans, Bold';font-variant-ligatures:normal;font-variant-caps:normal;font-variant-numeric:normal;font-feature-settings:normal;text-align:start;letter-spacing:0px;word-spacing:0px;writing-mode:lr-tb;text-anchor:start;display:inline;fill:#bdcada;fill-opacity:1;stroke:none"
       d="m 686.9375,880.36239 -0.96094,-3.35157 h -0.375 q -1.14844,1.82813 -3.25781,2.83594 -2.10938,0.98438 -4.80469,0.98438 -4.61719,0 -6.96094,-2.46094 -2.34375,-2.48438 -2.34375,-7.125 v -17.08594 h 7.14844 v 15.30469 q 0,2.83594 1.00781,4.26562 1.00782,1.40625 3.21094,1.40625 3,0 4.33594,-1.99218 1.33594,-2.01563 1.33594,-6.65625 v -12.32813 h 7.14843 v 26.20313 z"
       id="path5338"
       inkscape:connector-curvature="0" />
    <path
       transform="translate(-51.863324,-69.650297)"
       style="font-style:normal;font-variant:normal;font-weight:bold;font-stretch:normal;font-size:48px;line-height:1.25;font-family:'Open Sans';-inkscape-font-specification:'Open Sans, Bold';font-variant-ligatures:normal;font-variant-caps:normal;font-variant-numeric:normal;font-feature-settings:normal;text-align:start;letter-spacing:0px;word-spacing:0px;writing-mode:lr-tb;text-anchor:start;display:inline;fill:#bdcada;fill-opacity:1;stroke:none"
       d="m 724.10937,880.36239 h -7.14843 V 865.0577 q 0,-2.83594 -1.00782,-4.24219 -1.00781,-1.42969 -3.21093,-1.42969 -3,0 -4.33594,2.01563 -1.33594,1.99219 -1.33594,6.63281 v 12.32813 h -7.14844 v -26.20313 h 5.46094 l 0.96094,3.35156 h 0.39844 q 1.19531,-1.89843 3.28125,-2.85937 2.10937,-0.98438 4.78125,-0.98438 4.57031,0 6.9375,2.48438 2.36718,2.46094 2.36718,7.125 z"
       id="path5340"
       inkscape:connector-curvature="0" />
    <path
       transform="translate(-51.863324,-69.650297)"
       style="font-style:normal;font-variant:normal;font-weight:bold;font-stretch:normal;font-size:48px;line-height:1.25;font-family:'Open Sans';-inkscape-font-specification:'Open Sans, Bold';font-variant-ligatures:normal;font-variant-caps:normal;font-variant-numeric:normal;font-feature-settings:normal;text-align:start;letter-spacing:0px;word-spacing:0px;writing-mode:lr-tb;text-anchor:start;display:inline;fill:#bdcada;fill-opacity:1;stroke:none"
       d="m 731.16406,847.38582 q 0,-3.49218 3.89063,-3.49218 3.89062,0 3.89062,3.49218 0,1.66407 -0.98437,2.60157 -0.96094,0.91406 -2.90625,0.91406 -3.89063,0 -3.89063,-3.51563 z m 7.45313,32.97657 h -7.14844 v -26.20313 h 7.14844 z"
       id="path5342"
       inkscape:connector-curvature="0" />
    <path
       transform="translate(-51.863324,-69.650297)"
       style="font-style:normal;font-variant:normal;font-weight:bold;font-stretch:normal;font-size:48px;line-height:1.25;font-family:'Open Sans';-inkscape-font-specification:'Open Sans, Bold';font-variant-ligatures:normal;font-variant-caps:normal;font-variant-numeric:normal;font-feature-settings:normal;text-align:start;letter-spacing:0px;word-spacing:0px;writing-mode:lr-tb;text-anchor:start;display:inline;fill:#bdcada;fill-opacity:1;stroke:none"
       d="m 757.15625,875.13582 q 1.875,0 4.5,-0.82031 v 5.32031 q -2.67188,1.19532 -6.5625,1.19532 -4.28906,0 -6.25781,-2.15625 -1.94532,-2.17969 -1.94532,-6.51563 v -12.63281 h -3.42187 v -3.02344 l 3.9375,-2.39062 2.0625,-5.53125 h 4.57031 v 5.57812 h 7.33594 v 5.36719 h -7.33594 v 12.63281 q 0,1.52344 0.84375,2.25 0.86719,0.72656 2.27344,0.72656 z"
       id="path5344"
       inkscape:connector-curvature="0" />
    <path
       transform="translate(-51.863324,-69.650297)"
       style="font-style:normal;font-variant:normal;font-weight:bold;font-stretch:normal;font-size:48px;line-height:1.25;font-family:'Open Sans';-inkscape-font-specification:'Open Sans, Bold';font-variant-ligatures:normal;font-variant-caps:normal;font-variant-numeric:normal;font-feature-settings:normal;text-align:start;letter-spacing:0px;word-spacing:0px;writing-mode:lr-tb;text-anchor:start;display:inline;fill:#bdcada;fill-opacity:1;stroke:none"
       d="m 763.20312,854.15926 h 7.82813 l 4.94531,14.74219 q 0.63281,1.92187 0.86719,4.54687 h 0.14062 q 0.25782,-2.41406 1.00782,-4.54687 l 4.85156,-14.74219 h 7.66406 l -11.08594,29.55469 q -1.52343,4.10156 -4.35937,6.14062 -2.8125,2.03907 -6.58594,2.03907 -1.85156,0 -3.63281,-0.39844 v -5.67188 q 1.28906,0.30469 2.8125,0.30469 1.89844,0 3.30469,-1.17187 1.42968,-1.14844 2.22656,-3.49219 l 0.42187,-1.28906 z"
       id="path5346"
       inkscape:connector-curvature="0" />
    <path
       transform="translate(-51.863324,-69.650297)"
       style="font-style:normal;font-variant:normal;font-weight:bold;font-stretch:normal;font-size:48px;line-height:1.25;font-family:'Open Sans';-inkscape-font-specification:'Open Sans, Bold';font-variant-ligatures:normal;font-variant-caps:normal;font-variant-numeric:normal;font-feature-settings:normal;text-align:start;letter-spacing:0px;word-spacing:0px;writing-mode:lr-tb;text-anchor:start;display:inline;fill:#bdcada;fill-opacity:1;stroke:none"
       d="m 837.6875,880.36239 h -9.23438 l -14.90625,-25.92188 h -0.21093 q 0.44531,6.86719 0.44531,9.79688 v 16.125 h -6.49219 v -34.26563 h 9.16406 l 14.88282,25.66406 H 831.5 q -0.35156,-6.67968 -0.35156,-9.44531 v -16.21875 h 6.53906 z"
       id="path5348"
       inkscape:connector-curvature="0" />
    <path
       transform="translate(-51.863324,-69.650297)"
       style="font-style:normal;font-variant:normal;font-weight:bold;font-stretch:normal;font-size:48px;line-height:1.25;font-family:'Open Sans';-inkscape-font-specification:'Open Sans, Bold';font-variant-ligatures:normal;font-variant-caps:normal;font-variant-numeric:normal;font-feature-settings:normal;text-align:start;letter-spacing:0px;word-spacing:0px;writing-mode:lr-tb;text-anchor:start;display:inline;fill:#bdcada;fill-opacity:1;stroke:none"
       d="m 856.60156,858.75301 q -2.27344,0 -3.5625,1.45313 -1.28906,1.42968 -1.47656,4.07812 h 10.03125 q -0.0469,-2.64844 -1.38281,-4.07812 -1.33594,-1.45313 -3.60938,-1.45313 z m 1.00781,22.07813 q -6.32812,0 -9.89062,-3.49219 -3.5625,-3.49219 -3.5625,-9.89063 0,-6.58593 3.28125,-10.17187 3.30469,-3.60938 9.11719,-3.60938 5.55468,0 8.64843,3.16407 3.09375,3.16406 3.09375,8.74218 v 3.46875 h -16.89843 q 0.11718,3.04688 1.80468,4.75782 1.6875,1.71093 4.73438,1.71093 2.36719,0 4.47656,-0.49218 2.10938,-0.49219 4.40625,-1.57032 v 5.53125 q -1.875,0.9375 -4.00781,1.38282 -2.13281,0.46875 -5.20313,0.46875 z"
       id="path5350"
       inkscape:connector-curvature="0" />
    <path
       transform="translate(-51.863324,-69.650297)"
       style="font-style:normal;font-variant:normal;font-weight:bold;font-stretch:normal;font-size:48px;line-height:1.25;font-family:'Open Sans';-inkscape-font-specification:'Open Sans, Bold';font-variant-ligatures:normal;font-variant-caps:normal;font-variant-numeric:normal;font-feature-settings:normal;text-align:start;letter-spacing:0px;word-spacing:0px;writing-mode:lr-tb;text-anchor:start;display:inline;fill:#bdcada;fill-opacity:1;stroke:none"
       d="m 885.14844,875.13582 q 1.875,0 4.5,-0.82031 v 5.32031 q -2.67188,1.19532 -6.5625,1.19532 -4.28907,0 -6.25782,-2.15625 -1.94531,-2.17969 -1.94531,-6.51563 v -12.63281 h -3.42187 v -3.02344 l 3.9375,-2.39062 2.0625,-5.53125 h 4.57031 v 5.57812 h 7.33594 v 5.36719 h -7.33594 v 12.63281 q 0,1.52344 0.84375,2.25 0.86719,0.72656 2.27344,0.72656 z"
       id="path5352"
       inkscape:connector-curvature="0" />
    <path
       transform="translate(-51.863324,-69.650297)"
       style="font-style:normal;font-variant:normal;font-weight:bold;font-stretch:normal;font-size:48px;line-height:1.25;font-family:'Open Sans';-inkscape-font-specification:'Open Sans, Bold';font-variant-ligatures:normal;font-variant-caps:normal;font-variant-numeric:normal;font-feature-settings:normal;text-align:start;letter-spacing:0px;word-spacing:0px;writing-mode:lr-tb;text-anchor:start;display:inline;fill:#bdcada;fill-opacity:1;stroke:none"
       d="M 916.48437,880.36239 914.46875,871.19832 911.75,859.6202 h -0.16406 l -4.78125,20.74219 h -7.6875 l -7.45313,-26.20313 h 7.125 l 3.02344,11.60156 q 0.72656,3.11719 1.47656,8.60157 h 0.14063 q 0.0937,-1.78125 0.82031,-5.64844 l 0.375,-1.99219 3.23437,-12.5625 h 7.875 l 3.07032,12.5625 q 0.0937,0.51563 0.28125,1.52344 0.21093,1.00781 0.39843,2.15625 0.1875,1.125 0.32813,2.22656 0.16406,1.07813 0.1875,1.73438 h 0.14062 q 0.21094,-1.6875 0.75,-4.61719 0.53907,-2.95313 0.77344,-3.98438 l 3.14063,-11.60156 h 7.00781 l -7.54688,26.20313 z"
       id="path5354"
       inkscape:connector-curvature="0" />
    <path
       transform="translate(-51.863324,-69.650297)"
       style="font-style:normal;font-variant:normal;font-weight:bold;font-stretch:normal;font-size:48px;line-height:1.25;font-family:'Open Sans';-inkscape-font-specification:'Open Sans, Bold';font-variant-ligatures:normal;font-variant-caps:normal;font-variant-numeric:normal;font-feature-settings:normal;text-align:start;letter-spacing:0px;word-spacing:0px;writing-mode:lr-tb;text-anchor:start;display:inline;fill:#bdcada;fill-opacity:1;stroke:none"
       d="m 941.72656,867.21395 q 0,3.89062 1.26563,5.88281 1.28906,1.99219 4.17187,1.99219 2.85938,0 4.10156,-1.96875 1.26563,-1.99219 1.26563,-5.90625 0,-3.89063 -1.26563,-5.83594 -1.26562,-1.94531 -4.14843,-1.94531 -2.85938,0 -4.125,1.94531 -1.26563,1.92188 -1.26563,5.83594 z m 18.11719,0 q 0,6.39844 -3.375,10.00781 -3.375,3.60938 -9.39844,3.60938 -3.77344,0 -6.65625,-1.64063 -2.88281,-1.66406 -4.42969,-4.75781 -1.54687,-3.09375 -1.54687,-7.21875 0,-6.42188 3.35156,-9.98438 3.35156,-3.5625 9.42188,-3.5625 3.77343,0 6.65625,1.64063 2.88281,1.64062 4.42968,4.71094 1.54688,3.07031 1.54688,7.19531 z"
       id="path5356"
       inkscape:connector-curvature="0" />
    <path
       transform="translate(-51.863324,-69.650297)"
       style="font-style:normal;font-variant:normal;font-weight:bold;font-stretch:normal;font-size:48px;line-height:1.25;font-family:'Open Sans';-inkscape-font-specification:'Open Sans, Bold';font-variant-ligatures:normal;font-variant-caps:normal;font-variant-numeric:normal;font-feature-settings:normal;text-align:start;letter-spacing:0px;word-spacing:0px;writing-mode:lr-tb;text-anchor:start;display:inline;fill:#bdcada;fill-opacity:1;stroke:none"
       d="m 980.375,853.66707 q 1.45312,0 2.41406,0.21094 l -0.53906,6.70313 q -0.86719,-0.23438 -2.10938,-0.23438 -3.42187,0 -5.34375,1.75781 -1.89843,1.75782 -1.89843,4.92188 v 13.33594 H 965.75 v -26.20313 h 5.41406 l 1.05469,4.40625 h 0.35156 q 1.21875,-2.20312 3.28125,-3.53906 2.08594,-1.35938 4.52344,-1.35938 z"
       id="path5358"
       inkscape:connector-curvature="0" />
    <path
       transform="translate(-51.863324,-69.650297)"
       style="font-style:normal;font-variant:normal;font-weight:bold;font-stretch:normal;font-size:48px;line-height:1.25;font-family:'Open Sans';-inkscape-font-specification:'Open Sans, Bold';font-variant-ligatures:normal;font-variant-caps:normal;font-variant-numeric:normal;font-feature-settings:normal;text-align:start;letter-spacing:0px;word-spacing:0px;writing-mode:lr-tb;text-anchor:start;display:inline;fill:#bdcada;fill-opacity:1;stroke:none"
       d="m 994.41406,866.11239 3.11719,-3.98438 7.33595,-7.96875 h 8.0625 l -10.4063,11.36719 11.0391,14.83594 h -8.25 l -7.54688,-10.61719 -3.07031,2.46094 v 8.15625 h -7.14844 v -36.46875 h 7.14844 v 16.26562 l -0.375,5.95313 z"
       id="path5360"
       inkscape:connector-curvature="0" />
  </g>
  <g
     inkscape:groupmode="layer"
     id="layer1"
     inkscape:label="Label"
     style="display:inline">
    <g
       aria-label="Community Network"
       transform="translate(-51.863324,-69.650297)"
       style="font-style:normal;font-variant:normal;font-weight:bold;font-stretch:normal;font-size:48px;line-height:1.25;font-family:'Open Sans';-inkscape-font-specification:'Open Sans, Bold';font-variant-ligatures:normal;font-variant-caps:normal;font-variant-numeric:normal;font-feature-settings:normal;text-align:start;letter-spacing:0px;word-spacing:0px;writing-mode:lr-tb;text-anchor:start;fill:#bdcada;fill-opacity:1;stroke:none"
       id="flowRoot5318" />
  </g>
</svg>
