<?xml version="1.0" encoding="utf-8"?>
<!-- Generator: Adobe Illustrator 13.0.0, SVG Export Plug-In . SVG Version: 6.00 Build 14948)  -->
<!DOCTYPE svg PUBLIC "-//W3C//DTD SVG 1.1//EN" "http://www.w3.org/Graphics/SVG/1.1/DTD/svg11.dtd">
<svg version="1.1" xmlns="http://www.w3.org/2000/svg" xmlns:xlink="http://www.w3.org/1999/xlink" x="0px" y="0px" width="100px"
	 height="100px" viewBox="0 0 100 100" enable-background="new 0 0 100 100" xml:space="preserve">
<g id="Layer_2_copy">
	<circle cx="49.5" cy="49.5" r="45.25"/>
	<path d="M49.5,88.286c-21.386,0-38.785-17.4-38.785-38.787c0-21.386,17.399-38.785,38.785-38.785
		c21.387,0,38.786,17.399,38.786,38.785C88.285,70.886,70.887,88.286,49.5,88.286L49.5,88.286z"/>
	<path fill="#FFFFFF" d="M49.5,8.128c22.849,0,41.371,18.522,41.371,41.371c0,22.848-18.522,41.372-41.371,41.372
		c-22.85,0-41.371-18.523-41.371-41.372C8.128,26.651,26.65,8.128,49.5,8.128 M49.5,13.3c-19.961,0-36.2,16.239-36.2,36.2
		c0,19.961,16.239,36.2,36.2,36.2c19.961,0,36.2-16.238,36.2-36.2C85.7,29.539,69.461,13.3,49.5,13.3L49.5,13.3z"/>
</g>
<g id="Layer_1_copy">
	<g>
		<path fill="#FFFFFF" stroke="#000000" stroke-width="3" d="M87.75,50.75c0-3.116-2.457-7.387-3.201-10.273l-49.654-27.67
			L10.818,56.014L60.82,83.877C72.75,84,87.75,66.758,87.75,50.75z"/>
	</g>
	<polygon fill="#FFFFFF" stroke="#000000" stroke-width="3" stroke-linecap="round" stroke-linejoin="round" points="63.062,84.999 
		11.149,55.988 60.674,43.697 73.75,80.25 	"/>
	<g>
		<path fill="#FFFFFF" stroke="#000000" stroke-width="3" d="M52.361,62.941l34.704-7.516c0.191-1.506,1.81-2.746,1.81-4.301
			c0-3.105-0.012-5.373-0.75-8.25L36.759,14.356L52.361,62.941z"/>
	</g>
</g>
<g id="Layer_5">
	<g>
		<path fill="none" d="M17.737,66.833c3.515,6.415,8.908,11.66,15.444,14.975c4.906,2.488,10.452,3.892,16.319,3.892
			c19.961,0,36.2-16.238,36.2-36.2c0-10.365-4.379-19.727-11.384-26.333c-5.726-5.398-13.206-8.951-21.483-9.71v53.376H17.737z"/>
		<path fill="#FFFFFF" d="M78.589,20.082C71.855,13.423,62.845,9.072,52.833,8.273v5.183c8.277,0.759,15.758,4.312,21.483,9.71
			C81.321,29.772,85.7,39.134,85.7,49.5c0,19.961-16.239,36.2-36.2,36.2c-5.867,0-11.413-1.403-16.319-3.892
			c-6.536-3.314-11.929-8.56-15.444-14.975h-5.806c3.992,8.637,10.868,15.668,19.4,19.845c5.484,2.686,11.65,4.193,18.169,4.193
			c22.849,0,41.371-18.523,41.371-41.372C90.871,37.992,86.173,27.581,78.589,20.082z"/>
	</g>
</g>
</svg>
