<?xml version="1.0" encoding="UTF-8" standalone="no"?>
<svg
   xmlns:dc="http://purl.org/dc/elements/1.1/"
   xmlns:cc="http://creativecommons.org/ns#"
   xmlns:rdf="http://www.w3.org/1999/02/22-rdf-syntax-ns#"
   xmlns:svg="http://www.w3.org/2000/svg"
   xmlns="http://www.w3.org/2000/svg"
   id="svg8"
   version="1.1"
   viewBox="0 0 210 297"
   height="297mm"
   width="210mm">
  <defs
     id="defs2" />
  <metadata
     id="metadata5">
    <rdf:RDF>
      <cc:Work
         rdf:about="">
        <dc:format>image/svg+xml</dc:format>
        <dc:type
           rdf:resource="http://purl.org/dc/dcmitype/StillImage" />
        <dc:title></dc:title>
      </cc:Work>
    </rdf:RDF>
  </metadata>
  <g
     id="layer1">
    <g
       transform="matrix(0.26458333,0,0,0.26458333,-3.5979548,74.346085)"
       id="g854">
      <g
         id="Bands">
        <path
           id="Bottom"
           d="m 621.27,663.11 v 0 a 171.48,171.48 0 0 0 -242.54,0 v 0 L 500,784.38 Z"
           transform="translate(-97.83,-215.62)"
           style="fill:#3d58a7" />
        <path
           id="Middle"
           d="m 500,594.87 a 188.94,188.94 0 0 1 134,55.51 L 755.27,529.11 v 0 a 360.7,360.7 0 0 0 -510.54,0 v 0 L 366,650.38 a 188.94,188.94 0 0 1 134,-55.51 z"
           transform="translate(-97.83,-215.62)"
           style="fill:#3d58a7" />
        <path
           id="Top"
           d="m 500,405.38 a 377.81,377.81 0 0 1 268,111 L 902.17,382.21 v 0 C 680.06,160.1 319.94,160.1 97.83,382.21 v 0 L 232,516.38 a 377.81,377.81 0 0 1 268,-111 z"
           transform="translate(-97.83,-215.62)"
           style="fill:#3d58a7" />
      </g>
      <g
         id="City_Hall"
         data-name="City Hall">
        <g
           id="Right_Arm"
           data-name="Right Arm">
          <path
             id="Glass"
             d="M 533.5,411.11 A 100.5,100.5 0 0 0 634,310.61 v 339.77 l -100.5,100.5 z"
             transform="translate(-97.83,-215.62)"
             style="fill:#cdd7ee" />
          <path
             id="Post"
             d="M 701,583.38 V 310.61 a 9.92,9.92 0 0 0 -5.55,-8.95 c -14.05,-6.82 -41.86,-6.82 -55.91,0 a 9.93,9.93 0 0 0 -5.54,8.95 v 339.77 z"
             transform="translate(-97.83,-215.62)"
             style="fill:#223f81" />
        </g>
        <g
           id="Left_Arm"
           data-name="Left Arm">
          <path
             id="Glass-2"
             data-name="Glass"
             d="M 466.5,458.49 A 100.5,100.5 0 0 1 366,358 v 292.38 l 100.5,100.5 z"
             transform="translate(-97.83,-215.62)"
             style="fill:#cdd7ee" />
          <path
             id="Post-2"
             data-name="Post"
             d="m 299,583.38 67,67 V 358 a 9.93,9.93 0 0 0 -5.54,-8.95 c -14,-6.82 -41.86,-6.82 -55.91,0 A 9.92,9.92 0 0 0 299,358 Z"
             transform="translate(-97.83,-215.62)"
             style="fill:#223f81" />
        </g>
        <g
           id="Dome">
          <path
             id="Bottom-2"
             data-name="Bottom"
             d="m 500,705.86 c -16.35,0 -58,1.8 -75.9,2.62 l -5.7,-5.7 v 0 l 81.6,81.6 75.9,-75.9 C 558,707.66 516.34,705.86 500,705.86 Z"
             transform="translate(-97.83,-215.62)"
             style="fill:#223f81" />
          <path
             id="Band"
             d="m 584.29,700.09 v 0 c 0,0 -63.21,-3 -84.29,-3 -21.08,0 -84.21,3 -84.29,3 l 8.39,8.39 c 17.9,-0.82 59.55,-2.62 75.9,-2.62 16.35,0 58,1.8 75.9,2.62 z"
             transform="translate(-97.83,-215.62)"
             style="fill:#cdd7ee" />
          <path
             id="Top-2"
             data-name="Top"
             d="m 415.71,700.09 c 0.08,0 63.22,-3 84.29,-3 21.07,0 84.25,3 84.29,3 v 0 a 119.19,119.19 0 0 0 -168.58,0 z"
             transform="translate(-97.83,-215.62)"
             style="fill:#223f81" />
        </g>
      </g>
    </g>
    <g
       transform="matrix(1.5572619,0,0,1.5572619,26.609529,307.20535)"
       id="g905">
      <circle
         style="fill:#cceeee"
         class="icon-bg"
         cx="50"
         cy="50"
         r="50"
         id="circle859" />
      <circle
         style="fill:none;stroke:#ffffff;stroke-width:2px"
         class="icon-outline"
         cx="50"
         cy="50"
         r="49"
         id="circle861" />
      <circle
         style="fill:#444444;stroke:none"
         class="person"
         cx="50"
         cy="38"
         r="8"
         id="circle863" />
      <path
         style="fill:#444444"
         class="person"
         d="M 65,61 A 15,15 0 0 0 35,61 Z"
         id="path865" />
      <circle
         style="fill:#444444;stroke:none"
         class="person"
         cx="25"
         cy="18"
         r="8"
         id="circle867" />
      <path
         style="fill:#444444"
         class="person"
         d="M 40,41 A 15,15 0 0 0 10,41 Z"
         id="path869" />
      <circle
         style="fill:#444444;stroke:none"
         class="person"
         cx="75"
         cy="18"
         r="8"
         id="circle871" />
      <path
         style="fill:#444444"
         class="person"
         d="M 90,41 A 15,15 0 0 0 60,41 Z"
         id="path873" />
      <circle
         style="fill:#444444;stroke:none"
         class="person"
         cx="25"
         cy="60"
         r="8"
         id="circle875" />
      <path
         style="fill:#444444"
         class="person"
         d="M 40,83 A 15,15 0 0 0 10,83 Z"
         clip-path="url(#clip)"
         id="path877" />
      <circle
         style="fill:#444444;stroke:none"
         class="person"
         cx="75"
         cy="60"
         r="8"
         id="circle879" />
      <path
         style="fill:#444444"
         class="person"
         d="M 90,83 A 15,15 0 0 0 60,83 Z"
         clip-path="url(#clip)"
         id="path881" />
    </g>
    <path
       id="path907"
       d="m 103.29624,236.46882 -0.0419,60.52951"
       style="fill:none;stroke:#ffffff;stroke-width:1;stroke-linecap:butt;stroke-linejoin:miter;stroke-opacity:1;stroke-miterlimit:4;stroke-dasharray:none" />
  </g>
  <style
     type="text/css"
     id="style883">
    circle.icon-outline {
    stroke: #fff;
    stroke-width: 2px;
    fill: none;
    }
    
    circle.icon-bg {
    fill: #cee;
    }

    circle.person {
    fill: #444;
    stroke: none;
    }

    path.person {
    fill: #444;
    stoke: none;
    }
  </style>
</svg>
