<?xml version="1.0" encoding="UTF-8" standalone="no"?>
<!-- Created with Inkscape (http://www.inkscape.org/) -->

<svg
   xmlns:dc="http://purl.org/dc/elements/1.1/"
   xmlns:cc="http://creativecommons.org/ns#"
   xmlns:rdf="http://www.w3.org/1999/02/22-rdf-syntax-ns#"
   xmlns:svg="http://www.w3.org/2000/svg"
   xmlns="http://www.w3.org/2000/svg"
   xmlns:sodipodi="http://sodipodi.sourceforge.net/DTD/sodipodi-0.dtd"
   xmlns:inkscape="http://www.inkscape.org/namespaces/inkscape"
   width="1200"
   height="1200"
   viewBox="0 0 317.49999 317.50001"
   version="1.1"
   id="svg8"
   inkscape:version="0.92.3 (2405546, 2018-03-11)"
   sodipodi:docname="tomesh-c.svg">
  <defs
     id="defs2" />
  <sodipodi:namedview
     id="base"
     pagecolor="#ffffff"
     bordercolor="#666666"
     borderopacity="1.0"
     inkscape:pageopacity="0.0"
     inkscape:pageshadow="2"
     inkscape:zoom="0.49497475"
     inkscape:cx="-31.109132"
     inkscape:cy="532.80346"
     inkscape:document-units="mm"
     inkscape:current-layer="layer1"
     showgrid="false"
     inkscape:window-width="1920"
     inkscape:window-height="1021"
     inkscape:window-x="0"
     inkscape:window-y="0"
     inkscape:window-maximized="1"
     units="px" />
  <metadata
     id="metadata5">
    <rdf:RDF>
      <cc:Work
         rdf:about="">
        <dc:format>image/svg+xml</dc:format>
        <dc:type
           rdf:resource="http://purl.org/dc/dcmitype/StillImage" />
        <dc:title></dc:title>
      </cc:Work>
    </rdf:RDF>
  </metadata>
  <g
     inkscape:label="Layer 1"
     inkscape:groupmode="layer"
     id="layer1"
     transform="translate(0,20.500017)">
    <g
       id="g854"
       transform="matrix(0.19815933,0,0,0.19815933,80.841941,1.8694956)">
      <g
         id="Bands">
        <path
           style="fill:#3d58a7"
           transform="translate(-97.83,-215.62)"
           d="m 621.27,663.11 v 0 a 171.48,171.48 0 0 0 -242.54,0 v 0 L 500,784.38 Z"
           id="Bottom"
           inkscape:connector-curvature="0" />
        <path
           style="fill:#3d58a7"
           transform="translate(-97.83,-215.62)"
           d="m 500,594.87 a 188.94,188.94 0 0 1 134,55.51 L 755.27,529.11 v 0 a 360.7,360.7 0 0 0 -510.54,0 v 0 L 366,650.38 a 188.94,188.94 0 0 1 134,-55.51 z"
           id="Middle"
           inkscape:connector-curvature="0" />
        <path
           style="fill:#3d58a7"
           transform="translate(-97.83,-215.62)"
           d="m 500,405.38 a 377.81,377.81 0 0 1 268,111 L 902.17,382.21 v 0 C 680.06,160.1 319.94,160.1 97.83,382.21 v 0 L 232,516.38 a 377.81,377.81 0 0 1 268,-111 z"
           id="Top"
           inkscape:connector-curvature="0" />
      </g>
      <g
         data-name="City Hall"
         id="City_Hall">
        <g
           data-name="Right Arm"
           id="Right_Arm">
          <path
             style="fill:#cdd7ee"
             transform="translate(-97.83,-215.62)"
             d="M 533.5,411.11 A 100.5,100.5 0 0 0 634,310.61 v 339.77 l -100.5,100.5 z"
             id="Glass"
             inkscape:connector-curvature="0" />
          <path
             style="fill:#223f81"
             transform="translate(-97.83,-215.62)"
             d="M 701,583.38 V 310.61 a 9.92,9.92 0 0 0 -5.55,-8.95 c -14.05,-6.82 -41.86,-6.82 -55.91,0 a 9.93,9.93 0 0 0 -5.54,8.95 v 339.77 z"
             id="Post"
             inkscape:connector-curvature="0" />
        </g>
        <g
           data-name="Left Arm"
           id="Left_Arm">
          <path
             style="fill:#cdd7ee"
             transform="translate(-97.83,-215.62)"
             d="M 466.5,458.49 A 100.5,100.5 0 0 1 366,358 v 292.38 l 100.5,100.5 z"
             data-name="Glass"
             id="Glass-2"
             inkscape:connector-curvature="0" />
          <path
             style="fill:#223f81"
             transform="translate(-97.83,-215.62)"
             d="m 299,583.38 67,67 V 358 a 9.93,9.93 0 0 0 -5.54,-8.95 c -14,-6.82 -41.86,-6.82 -55.91,0 A 9.92,9.92 0 0 0 299,358 Z"
             data-name="Post"
             id="Post-2"
             inkscape:connector-curvature="0" />
        </g>
        <g
           id="Dome">
          <path
             style="fill:#223f81"
             transform="translate(-97.83,-215.62)"
             d="m 500,705.86 c -16.35,0 -58,1.8 -75.9,2.62 l -5.7,-5.7 v 0 l 81.6,81.6 75.9,-75.9 C 558,707.66 516.34,705.86 500,705.86 Z"
             data-name="Bottom"
             id="Bottom-2"
             inkscape:connector-curvature="0" />
          <path
             style="fill:#cdd7ee"
             transform="translate(-97.83,-215.62)"
             d="m 584.29,700.09 v 0 c 0,0 -63.21,-3 -84.29,-3 -21.08,0 -84.21,3 -84.29,3 l 8.39,8.39 c 17.9,-0.82 59.55,-2.62 75.9,-2.62 16.35,0 58,1.8 75.9,2.62 z"
             id="Band"
             inkscape:connector-curvature="0" />
          <path
             style="fill:#223f81"
             transform="translate(-97.83,-215.62)"
             d="m 415.71,700.09 c 0.08,0 63.22,-3 84.29,-3 21.07,0 84.25,3 84.29,3 v 0 a 119.19,119.19 0 0 0 -168.58,0 z"
             data-name="Top"
             id="Top-2"
             inkscape:connector-curvature="0" />
        </g>
      </g>
    </g>
    <path
       style="fill:none;stroke:#ffffff;stroke-width:4.78647614;stroke-linecap:round;stroke-linejoin:miter;stroke-miterlimit:4;stroke-dasharray:none;stroke-opacity:1"
       d="m 160.81531,123.32346 -0.0249,35.82259"
       id="path907"
       inkscape:connector-curvature="0"
       sodipodi:nodetypes="cc" />
    <g
       id="g1016"
       transform="matrix(1.1663092,0,0,1.1663092,102.51799,169.63401)">
      <circle
         id="circle992"
         r="50"
         cy="50"
         cx="50"
         class="icon-bg"
         style="fill:#cceeee" />
      <circle
         id="circle994"
         r="49"
         cy="50"
         cx="50"
         class="icon-outline"
         style="fill:none;stroke:#ffffff;stroke-width:2px" />
      <circle
         id="circle996"
         r="8"
         cy="38"
         cx="50"
         class="person"
         style="fill:#444444;stroke:none" />
      <path
         id="path998"
         d="M 65,61 A 15,15 0 0 0 35,61 Z"
         class="person"
         inkscape:connector-curvature="0"
         style="fill:#444444" />
      <circle
         id="circle1000"
         r="8"
         cy="18"
         cx="25"
         class="person"
         style="fill:#444444;stroke:none" />
      <path
         id="path1002"
         d="M 40,41 A 15,15 0 0 0 10,41 Z"
         class="person"
         inkscape:connector-curvature="0"
         style="fill:#444444" />
      <circle
         id="circle1004"
         r="8"
         cy="18"
         cx="75"
         class="person"
         style="fill:#444444;stroke:none" />
      <path
         id="path1006"
         d="M 90,41 A 15,15 0 0 0 60,41 Z"
         class="person"
         inkscape:connector-curvature="0"
         style="fill:#444444" />
      <circle
         id="circle1008"
         r="8"
         cy="60"
         cx="25"
         class="person"
         style="fill:#444444;stroke:none" />
      <path
         id="path1010"
         clip-path="url(#clip)"
         d="M 40,83 A 15,15 0 0 0 10,83 Z"
         class="person"
         inkscape:connector-curvature="0"
         style="fill:#444444" />
      <circle
         id="circle1012"
         r="8"
         cy="60"
         cx="75"
         class="person"
         style="fill:#444444;stroke:none" />
      <path
         id="path1014"
         clip-path="url(#clip)"
         d="M 90,83 A 15,15 0 0 0 60,83 Z"
         class="person"
         inkscape:connector-curvature="0"
         style="fill:#444444" />
    </g>
  </g>
  <style
     id="style883"
     type="text/css">
    circle.icon-outline {
    stroke: #fff;
    stroke-width: 2px;
    fill: none;
    }
    
    circle.icon-bg {
    fill: #cee;
    }

    circle.person {
    fill: #444;
    stroke: none;
    }

    path.person {
    fill: #444;
    stoke: none;
    }
  </style>
</svg>
