<?xml version="1.0" encoding="UTF-8" standalone="no"?>
<svg id="aol1" xmlns:rdf="http://www.w3.org/1999/02/22-rdf-syntax-ns#" xmlns="http://www.w3.org/2000/svg" xml:space="preserve" viewBox="0 0 209.66969 183.89827" height="100%" width="100%" version="1.1" xmlns:cc="http://creativecommons.org/ns#" xmlns:dc="http://purl.org/dc/elements/1.1/"><metadata id="m1"><rdf:RDF><cc:Work rdf:about=""><dc:format>image/svg+xml</dc:format><dc:type rdf:resource="http://purl.org/dc/dcmitype/StillImage"/><dc:title/></cc:Work></rdf:RDF></metadata><g id="g1" transform="matrix(1.25,0,0,-1.25,-270.68453,620.85789)"><g id="g2" fill-rule="evenodd" transform="scale(0.1,0.1)"><path id="p2" fill="#2e3192" d="m3078.3,4781.1c-40.84,22.69-107.39,18.15-149.74-4.54-77.14-42.35-133.11-124.02-139.15-208.73,30.25,63.53,86.21,131.59,158.81,143.69,51.42,7.56,102.86-12.1,133.11-60.5,33.26-57.47,21.17-142.18,0-199.65,54.45,51.43,74.11,119.49,74.11,195.12,62.02-108.91,128.56-216.3,189.07-326.71h-311.59c75.63,42.35,128.57,125.53,133.11,210.24-33.28-66.55-87.73-131.6-164.87-143.69-52.94-6.05-102.85,10.59-131.59,58.98-36.31,54.46-18.15,134.62,3.03,190.59h-6.06c-66.55-68.07-92.26-178.48-49.91-266.21,9.08-19.66,25.71-37.82,45.38-49.91h-264.69c122.5,213.27,246.54,428.04,373.59,639.8l107.5-178.5"/><path id="p3" fill="#2e3192" d="m3057.1,4136.8c-62.02-105.88-111.93-219.32-157.31-329.73,52.94,39.32,101.34,92.26,154.28,133.1,13.61,10.59,7.56,37.81,28.73,36.3,12.11-10.59,22.69-22.69,18.16-37.81-10.59-34.79-31.77-66.56-37.82-99.83,54.46,57.47,114.96,98.31,172.43,154.28,9.08-10.6,30.25-19.66,25.72-36.3-10.59-16.64-10.59-36.3-19.67-52.94l1.52-1.51c31.76,36.3,71.09,58.98,107.39,84.7,13.61,0,21.17-16.64,28.74-27.23v-16.63c-19.67-42.36-43.87-83.19-60.51-128.57h6.05c42.35,46.88,111.94,69.57,131.6,131.58,22.68,19.67,33.27,72.61,75.62,57.49,12.1-19.67,40.84-36.31,48.4-60.5-39.32-27.23-104.37-19.67-117.98-77.14-7.56-19.67-22.68-40.85-15.12-62.02,119.49,60.5,243.52,108.9,372.08,145.2-130.08-57.47-264.69-114.95-381.16-214.78-21.17,1.52-31.75,27.23-42.35,42.36-3.02,31.75,9.08,55.96,18.15,83.19-18.15-4.55-36.3-22.69-51.42-36.31l-78.66-84.7c-18.15-7.56-21.17,18.15-31.76,27.23-6.05,13.61,9.08,21.17,10.59,31.77,19.66,49.91,52.94,93.77,69.57,145.2h-9.07c-65.04-48.41-133.1-116.47-161.84-187.56-18.16,0-22.69,21.18-27.22,33.28,21.17,51.42,52.94,98.31,72.6,151.25h-6.06c-69.57-65.04-136.12-130.08-189.06-201.17-10.59,10.59-27.23,24.2-18.15,40.84,15.12,40.84,36.3,78.65,49.91,121-7.56,4.55-13.61-6.05-19.66-9.07-60.5-54.45-121-114.95-166.38-178.48-19.66-12.1-21.17,15.12-31.76,21.17,3.02,31.77,21.18,57.49,27.22,87.73-27.22-9.07-49.92-37.81-72.61-60.5-16.62-18.15-33.26-34.79-49.9-51.43-13.61,3.03-21.18,18.15-28.74,28.74,12.1,52.95,40.83,98.32,60.5,148.23-18.15-1.51-33.27-24.2-46.89-34.78-34.78-40.85-49.91-89.25-78.66-133.11-18.14-6.05-21.17,18.15-28.73,28.73,24.2,62.02,58.99,121.01,81.68,184.53h-13.62c-69.57-43.85-136.13-107.39-204.19-161.84-12.1-4.53-16.64,9.08-22.69,15.13-60.5-87.73-98.31-199.65-195.12-263.19-33.27,1.52-71.09,28.75-80.15,60.51,6.04,102.86,55.95,189.07,98.31,276.8,55.96,90.75,114.95,183.01,193.6,260.15,31.77-7.56,68.06-9.07,78.66-45.38-1.52-39.32-18.15-71.08-42.36-99.82l-4.53,4.54c3.02,31.76,16.64,62.01,9.08,93.77h-7.57c-116.47-133.1-213.27-282.84-270.75-443.17-3.02-15.13-9.07-31.77-1.51-45.37,7.57-12.11,22.69-15.13,34.79-13.62,80.16,62.01,128.56,152.77,178.48,234.45-3.02,63.52,30.25,111.92,66.56,155.78,7.56,6.05,21.17,3.03,30.24-4.53,6.05-40.84-28.74-72.61-43.87-108.9v-4.54c31.77-4.54,46.89,30.25,77.14,39.32,45.38,22.7,78.66,63.52,127.06,83.19,19.67,10.59,19.67-19.67,31.77-25.71,1.51-22.69-18.15-37.81-16.65-57.48,30.25,18.15,52.95,49.91,87.73,54.45,10.59-9.07,9.08-21.17,15.13-31.75-16.64-40.85-39.32-80.18-52.94-122.52h7.56c45.38,45.37,122.52,78.64,131.59,148.22,39.33,90.76,84.7,180,136.13,266.21,12.11-16.64,30.25-36.3,19.67-60.5"/><path id="p4" fill="#2e3192" d="m3196.2,4138.3c-6.04-43.86-36.29-80.17-60.49-117.98-6.06-4.53-6.06-16.63-16.64-13.61-4.55,16.64-34.79,30.26-18.15,49.92,30.25,30.24,63.52,54.45,95.28,81.67"/><path id="p1" fill="#FFF" d="m3547.2,3952.2c-13.6-10.59-33.27-15.13-49.9-22.69,4.53,12.1,16.63,25.72,28.73,34.79,9.08,1.51,18.15-3.03,21.17-12.1"/><path id="p5" fill="#2e3192" d="m3834.5,3701.1c-189.07-4.54-379.65,0-574.77-18.15-319.14-21.18-615.6-92.27-906-179.99,22.69,108.9,152.77,74.11,229.9,107.39,399.31,83.19,834.92,125.54,1250.9,90.75"/><path id="p6" fill="#231f20" d="m3548.1,3754.4c0,19.05,15.5,34.55,34.74,34.55,19.13,0,34.55-15.5,34.55-34.55,0-19.22-15.42-34.74-34.55-34.74-19.24,0-34.74,15.52-34.74,34.74zm65.11,0c0,16.78-13.6,30.38-30.37,30.38-16.88,0-30.49-13.6-30.49-30.38,0-16.96,13.61-30.57,30.49-30.57,16.77,0,30.37,13.61,30.37,30.57zm-13.15-19.41-5.62,0-11.07,17.87-8.71,0,0-17.87-4.71,0,0,38.72,16.88,0c3.26,0,6.52-0.17,9.42-1.9,2.9-1.63,4.37-5.07,4.37-8.34,0-7.62-5.36-10.43-12.25-10.61l11.69-17.87zm-18.13,21.58c5.44,0,13.87-0.9,13.87,7,0,5.98-5.26,6.7-10.06,6.7h-11.08v-13.7h7.27"/><path id="p7" fill="#231f20" d="m3362.2,4326.7c0.18-4.21,2.85-6.92,6.97-6.92,3.52,0,6.74,2.71,6.74,6.65,0,5.15-5.2,6.47-7.47,7.15-3.03,0.9-8.68,2.17-8.68,8.82,0,5.2,4.12,9,9.41,9,5.48,0,9.27-4.2,9.27-9.09h-3.34c0,3.39-2.77,6.07-5.93,6.07-3.85,0-6.06-2.94-6.06-5.84,0-4.08,3.57-5.03,7.96-6.29,8.24-2.22,8.19-8.69,8.19-9.68,0-5.16-4.16-9.83-10.09-9.83-4.34,0-10.18,2.59-10.31,9.96h3.34"/><path id="p8" fill="#231f20" d="m3383.9,4350.8,5.17,0,12.16-28.5,12.21,28.5,5.16,0,0-33.47-3.34,0,0,29.8-0.09,0-12.53-29.8-2.86,0-12.44,29.8-0.08,0,0-29.8-3.36,0,0,33.47"/><path id="p9" fill="#2e3192" d="m2251.4,4164.8-15.14-35.61-15.31,0,57.91,131.46,56.41-131.46-15.47,0-14.82,35.61-53.58,0,0,0zm27.13,63.23-21.47-50.26,42.44,0-20.97,50.26"/><path id="pa" fill="#2e3192" d="m2476.4,4261.8,45.6-105.33,45.76,105.33,25.46-132.61-14.31,0-16.15,84.86-0.33,0-40.43-90.02-40.27,90.02-0.34,0-16.14-84.86-14.31,0,25.46,132.61"/><path id="pb" fill="#2e3192" d="m2697.6,4254.7,65.07,0,0-12.98-51.08,0,0-37.28,49.58,0,0-12.98-49.58,0,0-49.26,51.08,0,0-12.97-65.07,0,0,125.47"/><path id="pc" fill="#2e3192" d="m2900.2,4129.2-13.98,0,0,125.47,18.14,0c23.8,0,45.93-6.33,45.93-34.62,0-19.3-12.15-32.95-31.45-34.61l39.94-56.24h-17.14l-37.94,55.08h-3.5v-55.08zm0,67.39,4.34,0c15.8,0,31.77,2.99,31.77,22.47,0,20.63-15.14,22.63-31.95,22.63h-4.16v-45.1"/><path id="pd" fill="#2e3192" d="m3076.6,4129.2,13.973,0,0,125.47-13.973,0,0-125.47z"/><path id="pe" fill="#2e3192" d="m3311.5,4227.2c-9.99,10.32-23.79,16.64-38.27,16.64-27.96,0-50.59-24.29-50.59-51.92,0-27.62,22.8-51.91,50.93-51.91,14.14,0,27.94,6.65,37.93,16.63v-17.31c-10.81-7.82-24.13-12.3-37.44-12.3-35.44,0-65.39,28.79-65.39,64.39,0,35.94,29.45,65.4,65.39,65.4,13.98,0,26.29-3.99,37.44-12.32v-17.3"/><path id="pf" fill="#2e3192" d="m3453.7,4164.8-15.14-35.61-15.31,0,57.91,131.46,56.4-131.46-15.47,0-14.81,35.61-53.58,0,0,0zm27.12,63.23-21.47-50.26,42.44,0-20.97,50.26"/></g></g></svg>