<svg xmlns="http://www.w3.org/2000/svg" viewBox="0 0  1000 100">

    <style>
        .node {
            fill: rgb(27,24,24);;
            stroke: #666;
            stroke-width: 2px;
            rx: 10px;
        }

        .node-highlight {
            fill: #ddd;
            stroke: #ddd;
            stroke-width: 2px;
            rx: 10px;
        }

        .node-text {
            fill: #ddd;
            font-family: Arial;
        }

        .node-highlight-text {
            fill: #000;
            font-family: Arial;
        }
        
    </style>


    <g id="home-network">
        <rect class="node" width="330" height="85" x="5" y="10"/>
        <text class="node-text" x="120" y="35">Home network</text>

        <g id="personal-computer">
            <rect class="node" width="40" height="40" x="10" y="50" />
            <text class="node-text" x="20" y="75">PC</text>
        </g>

        <g id="access-point">
            <rect class="node" width="40" height="40" x="60" y="50" />
            <text class="node-text" x="70" y="75">AP</text>
        </g>

        <g id="switch">
            <rect class="node" width="65" height="40" x="110" y="50" />
            <text class="node-text" x="120" y="75">Switch</text>
        </g>

        <g id="router">
            <rect class="node" width="65" height="40" x="185" y="50" />
            <text class="node-text" x="195" y="75">Router</text>
        </g>

        <g id="modem">
            <rect class="node" width="70" height="40" x="260" y="50" />
            <text class="node-text" x="270" y="75">Modem</text>
        </g>
    </g>

    <line class="node" x1="335" x2="350" y1="70" y2="70" />


    <g id="isp-networks">
        <rect class="node-highlight" width="340" height="85" x="350" y="10" />
        <text class="node-highlight-text" x="485" y="35">ISP networks</text>

        <g class="tier-3-isp">
            <rect class="node" width="90" height="40" x="360" y="50" />
            <text class="node-text" x="370" y="75">Tier 3 ISP</text>
        </g>

        <g id="isp-tiers">
            <rect class="node" width="120" height="40" x="460" y="50" />
            <text class="node-text" x="468" y="75">Tier 2/1/2 ISPs</text>
        </g>

        <g class="tier-3-isp">
            <rect class="node" width="90" height="40" x="590" y="50" />
            <text class="node-text" x="600" y="75">Tier 3 ISP</text>
        </g>
    </g>

    <!-- <line class="node node-highlight" x1="690" x2="705" y1="70" y2="70" />

    <g id="facebook-network">
        <rect class="node" width="290" height="85" x="705" y="10" />
        <text class="node-text" x="800" y="35">Facebook network</text>

        <g class="fb-modem">
            <rect class="node node" width="65" height="40" x="715" y="50" />
            <text class="node-text" x="722" y="75">Modem</text>
        </g>

        <g id="fb-router">
            <rect class="node node" width="65" height="40" x="785" y="50" />
            <text class="node-text" x="795" y="75">Router</text>
        </g>

        <g class="fb-switch">
            <rect class="node node" width="60" height="40" x="855" y="50" />
            <text class="node-text" x="860" y="75">Switch</text>
        </g>

        <g class="fb-server">
            <rect class="node-highlight" width="70" height="40" x="920" y="50" />
            <text class="node-highlight-text" x="930" y="75">Server</text>
        </g>
    </g> -->

</svg>